<?xml version="1.0" encoding="iso-8859-1"?>
<!-- Generator: Adobe Illustrator 22.0.1, SVG Export Plug-In . SVG Version: 6.00 Build 0)  -->
<svg version="1.1" id="Layer_1" xmlns="http://www.w3.org/2000/svg" xmlns:xlink="http://www.w3.org/1999/xlink" x="0px" y="0px"
	 viewBox="0 0 368 368" style="enable-background:new 0 0 368 368;" xml:space="preserve">
<g>
	<path style="fill:#9CAFB7;" d="M368,184c0,101.621-82.379,184-184,184S0,285.621,0,184S82.379,0,184,0S368,82.379,368,184L368,184z
		 M368,184"/>
	<path style="fill:#8A9249;" d="M368,184c0,28.871-6.656,56.184-18.508,80.5h-30.703c-4.949,0-9.344-3.168-10.91-7.863
		l-30.371-91.117c-0.965-2.895-3.039-5.286-5.77-6.649l-12.383-6.191c-3.894-1.95-6.355-5.934-6.355-10.285v-11.129
		c0-3.051,1.211-5.977,3.367-8.133l27.766-27.766c2.156-2.156,5.078-3.367,8.129-3.367h34.129c4.355,0,8.339,2.461,10.285,6.359
		l5.144,10.286c1.95,3.894,5.93,6.355,10.285,6.355h2.504C363.238,136.309,368,159.598,368,184L368,184z M195.5,184v9.473
		c0,1.339-0.234,2.672-0.691,3.929L152.254,314.43c-1.652,4.547-5.973,7.57-10.809,7.57h-6.656c-4.949,0-9.344-3.168-10.91-7.863
		L93.508,223.02c-0.965-2.895-3.039-5.286-5.77-6.649l-12.383-6.191C71.461,208.23,69,204.246,69,199.895v-45.629
		c0-3.051-1.211-5.977-3.367-8.133l-17.379-17.379c-1.477-1.477-3.324-2.52-5.344-3.027l-30.722-7.68
		C36.781,54.016,96.129,7.23,167.137,0.777l15.648,31.293c0.801,1.598,1.215,3.36,1.215,5.145v2.336
		c0,4.008-2.086,7.722-5.504,9.812l-9.418,5.758c-2.504,1.527-4.324,3.957-5.098,6.785l-12.168,44.621
		c-1.367,5.004-5.91,8.473-11.093,8.473h-0.563c-1.426,0-2.836-0.262-4.168-0.781L108.43,103.5v0.004l-20.856,17.172
		c-4.14,3.41-5.375,9.226-2.976,14.023l4.226,8.446c1.946,3.894,5.93,6.355,10.285,6.355h20.286c4.355,0,8.335,2.461,10.285,6.359
		l5.14,10.286c1.95,3.894,5.934,6.355,10.285,6.355H184C190.352,172.5,195.5,177.648,195.5,184L195.5,184z M317.609,57.5h-36.582
		c-3.082,0-5.898,1.738-7.273,4.496l-7.008,14.008c-1.375,2.758-4.191,4.496-7.269,4.496h-21.344c-4.492,0-8.133-3.641-8.133-8.133
		V54.133c0-4.492,3.641-8.133,8.133-8.133c2.156,0,4.226-0.855,5.75-2.383l6.738-6.734c1.524-1.528,2.379-3.594,2.379-5.75V13.391
		C277.641,23.363,299.629,38.512,317.609,57.5L317.609,57.5z M317.609,57.5"/>
</g>
</svg>
