<?xml version="1.0" encoding="iso-8859-1"?>
<!-- Generator: Adobe Illustrator 22.0.1, SVG Export Plug-In . SVG Version: 6.00 Build 0)  -->
<svg version="1.1" id="Layer_1" xmlns="http://www.w3.org/2000/svg" xmlns:xlink="http://www.w3.org/1999/xlink" x="0px" y="0px"
	 viewBox="0 0 44.801 44" style="enable-background:new 0 0 44.801 44;" xml:space="preserve">
<g>
	<path style="fill:#D75A4A;" d="M40.801,24c0,10.605-8.598,19.199-19.199,19.199C10.996,43.199,2.398,34.605,2.398,24
		c0-10.605,8.598-19.199,19.204-19.199C32.203,4.801,40.801,13.395,40.801,24L40.801,24z M40.801,24"/>
	<path style="fill:#F3D55B;" d="M44,4h-1.27l-1.929-1.93V0.801C40.801,0.359,40.441,0,40,0s-0.801,0.359-0.801,0.801V2.07L37.27,4
		H36c-0.441,0-0.801,0.359-0.801,0.801c0,0.441,0.36,0.801,0.801,0.801h1.27l1.929,1.929v1.27c0,0.441,0.36,0.801,0.801,0.801
		s0.801-0.36,0.801-0.801v-1.27l1.929-1.929H44c0.441,0,0.801-0.36,0.801-0.801C44.801,4.359,44.441,4,44,4L44,4z M44,4"/>
	<path style="fill:#F3D55B;" d="M5.602,7.199C5.602,7.641,5.242,8,4.801,8C4.359,8,4,7.641,4,7.199c0-0.441,0.359-0.801,0.801-0.801
		C5.242,6.398,5.602,6.758,5.602,7.199L5.602,7.199z M5.602,7.199"/>
	<path style="fill:#F3D55B;" d="M20.801,9.602c0,0.441-0.36,0.796-0.801,0.796c-0.441,0-0.801-0.355-0.801-0.796
		c0-0.446,0.36-0.801,0.801-0.801C20.441,8.801,20.801,9.156,20.801,9.602L20.801,9.602z M20.801,9.602"/>
	<path style="fill:#F3D55B;" d="M43.199,13.602c0,0.441-0.355,0.796-0.801,0.796c-0.441,0-0.796-0.355-0.796-0.796
		c0-0.446,0.355-0.801,0.796-0.801C42.844,12.801,43.199,13.156,43.199,13.602L43.199,13.602z M43.199,13.602"/>
	<path style="fill:#F3D55B;" d="M29.602,4c0,0.441-0.36,0.801-0.801,0.801C28.359,4.801,28,4.441,28,4s0.359-0.801,0.801-0.801
		C29.242,3.199,29.602,3.559,29.602,4L29.602,4z M29.602,4"/>
	<path style="fill:#F3D55B;" d="M28.801,36c0,0.441-0.36,0.801-0.801,0.801s-0.801-0.36-0.801-0.801c0-0.441,0.36-0.801,0.801-0.801
		S28.801,35.559,28.801,36L28.801,36z M28.801,36"/>
	<path style="fill:#F3D55B;" d="M3.199,43.199C3.199,43.641,2.844,44,2.398,44c-0.441,0-0.796-0.359-0.796-0.801
		c0-0.441,0.355-0.801,0.796-0.801C2.844,42.398,3.199,42.758,3.199,43.199L3.199,43.199z M3.199,43.199"/>
	<path style="fill:#F3D55B;" d="M1.602,34.398c0,0.446-0.36,0.801-0.801,0.801C0.359,35.199,0,34.844,0,34.398
		c0-0.441,0.359-0.796,0.801-0.796C1.242,33.602,1.602,33.957,1.602,34.398L1.602,34.398z M1.602,34.398"/>
	<path style="fill:#E57E25;" d="M39.176,16.273c-0.738-1.679-1.711-3.234-2.875-4.621c-5.551,0.883-17.102,2.746-17.102,2.746
		L39.176,16.273z M39.176,16.273"/>
	<path style="fill:#E57E25;" d="M38.535,33.047c0.789-1.473,1.387-3.055,1.77-4.727l-25.907,2.879
		C14.398,31.199,29.637,32.336,38.535,33.047L38.535,33.047z M38.535,33.047"/>
	<path style="fill:#E57E25;" d="M2.691,20.695C2.504,21.77,2.398,22.871,2.398,24c0,0.434,0.024,0.867,0.051,1.293l16.75-2.094
		C19.199,23.199,9.098,21.637,2.691,20.695L2.691,20.695z M2.691,20.695"/>
	<path style="fill:#F3D55B;" d="M36,43.199C36,43.641,35.641,44,35.199,44c-0.441,0-0.801-0.359-0.801-0.801
		c0-0.441,0.36-0.801,0.801-0.801C35.641,42.398,36,42.758,36,43.199L36,43.199z M36,43.199"/>
	<path style="fill:#F3D55B;" d="M43.199,33.602c0,0.441-0.355,0.796-0.801,0.796c-0.441,0-0.796-0.355-0.796-0.796
		c0-0.446,0.355-0.801,0.796-0.801C42.844,32.801,43.199,33.156,43.199,33.602L43.199,33.602z M43.199,33.602"/>
	<path style="fill:#F3D55B;" d="M1.602,3.199C1.602,3.641,1.242,4,0.801,4C0.359,4,0,3.641,0,3.199c0-0.441,0.359-0.801,0.801-0.801
		C1.242,2.398,1.602,2.758,1.602,3.199L1.602,3.199z M1.602,3.199"/>
	<path style="fill:#F3D55B;" d="M10.398,1.602c0,0.441-0.355,0.796-0.796,0.796c-0.446,0-0.801-0.355-0.801-0.796
		c0-0.446,0.355-0.801,0.801-0.801C10.043,0.801,10.398,1.156,10.398,1.602L10.398,1.602z M10.398,1.602"/>
</g>
</svg>
