<?xml version="1.0" encoding="iso-8859-1"?>
<!-- Generator: Adobe Illustrator 22.0.1, SVG Export Plug-In . SVG Version: 6.00 Build 0)  -->
<svg version="1.1" id="Layer_1" xmlns="http://www.w3.org/2000/svg" xmlns:xlink="http://www.w3.org/1999/xlink" x="0px" y="0px"
	 viewBox="0 0 46.398 46.398" style="enable-background:new 0 0 46.398 46.398;" xml:space="preserve">
<g>
	<path style="fill:#CBB292;" d="M3.016,24.801c2.859,0,5.64-0.781,8.046-2.262c1.844-1.137,4.106-1.738,6.54-1.738
		c2.429,0,4.691,0.601,6.539,1.738c2.402,1.481,5.183,2.262,8.043,2.262h14.093c0.02,0,0.039,0.008,0.059,0.011
		c0.039-0.535,0.062-1.07,0.062-1.613c0-0.543-0.023-1.078-0.062-1.613c-0.02,0.004-0.039,0.016-0.059,0.016H31.199
		c-0.441,0-0.801-0.36-0.801-0.801c0-0.442,0.36-0.801,0.801-0.801h14.977c-0.153-1.094-0.379-2.164-0.676-3.203
		c-0.074,0.023-0.145,0.047-0.227,0.047H21.602c-0.446,0-0.801-0.36-0.801-0.801c0-0.441,0.355-0.801,0.801-0.801H45
		c-0.422-1.148-0.934-2.254-1.523-3.308c-0.118,0.066-0.247,0.113-0.391,0.113h-4.688c-0.441,0-0.796-0.356-0.796-0.797
		c0-0.441,0.355-0.801,0.796-0.801h4.18C38.43,4.156,31.301,0,23.199,0C17.012,0,11.395,2.43,7.234,6.375h6.418
		c0.442,0,0.797,0.359,0.797,0.801c0,0.441-0.355,0.801-0.797,0.801h-7.23c-0.207,0-0.391-0.082-0.535-0.215
		c-0.75,0.843-1.442,1.742-2.067,2.687H8c0.441,0,0.801,0.356,0.801,0.797c0,0.445-0.36,0.801-0.801,0.801H3.312
		c-0.144,0-0.273-0.047-0.39-0.117c-0.445,0.797-0.84,1.621-1.192,2.468h4.555c0.445,0,0.801,0.36,0.801,0.801
		C7.086,15.641,6.73,16,6.285,16H1.602c-0.157,0-0.293-0.055-0.414-0.129c-0.278,0.84-0.516,1.695-0.7,2.574h10.711
		c0.442,0,0.801,0.36,0.801,0.801c0,0.441-0.359,0.801-0.801,0.801H0.336c-0.039,0-0.074-0.016-0.113-0.024
		C0.078,21.062,0,22.121,0,23.199c0,0.543,0.027,1.078,0.062,1.613c0.02-0.003,0.04-0.011,0.063-0.011H3.016z M3.016,24.801"/>
	<path style="fill:#FBD490;" d="M24.141,35.062c-1.848,1.137-4.11,1.739-6.539,1.739c-2.434,0-4.696-0.602-6.54-1.739
		c-2.406-1.48-5.187-2.261-8.046-2.261H2.082c0.551,1.207,1.195,2.363,1.938,3.449c0.16-0.113,0.359-0.172,0.57-0.145
		c1.57,0.219,3.043,0.743,4.375,1.563C11.441,39.195,14.426,40,17.602,40c3.171,0,6.156-0.805,8.632-2.332
		c1.774-1.09,3.832-1.668,5.95-1.668h9.808c0.172,0,0.32,0.066,0.453,0.16c0.715-1.062,1.34-2.187,1.875-3.359H32.184
		C29.324,32.801,26.543,33.582,24.141,35.062L24.141,35.062z M24.141,35.062"/>
	<path style="fill:#D6BFA5;" d="M23.301,23.898c-1.594-0.98-3.567-1.5-5.699-1.5c-2.137,0-4.11,0.52-5.704,1.5
		c-2.656,1.637-5.726,2.5-8.882,2.5H0.227c0.23,1.688,0.64,3.313,1.214,4.86c0.09-0.035,0.188-0.059,0.289-0.059h1.286
		c3.156,0,6.226,0.867,8.882,2.5c1.594,0.981,3.567,1.5,5.704,1.5c2.132,0,4.105-0.519,5.699-1.5c2.656-1.633,5.726-2.5,8.883-2.5
		h12.484c0.102,0,0.199,0.024,0.293,0.059c0.57-1.547,0.98-3.172,1.215-4.86H32.184C29.027,26.398,25.957,25.535,23.301,23.898
		L23.301,23.898z M23.301,23.898"/>
	<path style="fill:#D6BFA5;" d="M32.801,20.801C32.801,29.195,25.996,36,17.602,36C9.207,36,2.398,29.195,2.398,20.801
		c0-8.395,6.809-15.199,15.204-15.199C25.996,5.602,32.801,12.406,32.801,20.801L32.801,20.801z M32.801,20.801"/>
	<path style="fill:#CBB292;" d="M27.074,39.031c-2.726,1.68-6.004,2.571-9.472,2.571c-3.473,0-6.747-0.891-9.477-2.571
		c-0.898-0.554-1.879-0.945-2.91-1.179c4.254,5.214,10.73,8.546,17.984,8.546c4.293,0,8.309-1.168,11.754-3.199h-7.754
		c-0.441,0-0.801-0.359-0.801-0.801c0-0.441,0.36-0.796,0.801-0.796h8.918c0.293,0,0.535,0.164,0.676,0.394
		c1.723-1.25,3.269-2.73,4.59-4.394h-9.199C30.363,37.602,28.594,38.094,27.074,39.031L27.074,39.031z M27.074,39.031"/>
	<path style="fill:#E5C5A5;" d="M24.801,18.398c0,5.305-4.301,9.602-9.602,9.602c-5.301,0-9.597-4.297-9.597-9.602
		c0-5.3,4.296-9.597,9.597-9.597C20.5,8.801,24.801,13.098,24.801,18.398L24.801,18.398z M24.801,18.398"/>
	<path style="fill:#AF8066;" d="M32.184,36c-2.118,0-4.176,0.578-5.95,1.668C23.758,39.195,20.773,40,17.602,40
		c-3.176,0-6.161-0.805-8.637-2.332c-1.332-0.82-2.805-1.344-4.375-1.563c-0.211-0.027-0.41,0.032-0.57,0.145
		c0.375,0.551,0.773,1.086,1.195,1.602c1.031,0.234,2.008,0.625,2.91,1.179c2.73,1.68,6.004,2.571,9.477,2.571
		c3.468,0,6.746-0.891,9.472-2.571c1.52-0.937,3.289-1.429,5.11-1.429h9.199c0.371-0.469,0.726-0.946,1.062-1.442
		C42.312,36.066,42.164,36,41.992,36H32.184z M32.184,36"/>
	<path style="fill:#AF8066;" d="M46.277,24.801H32.184c-2.86,0-5.641-0.781-8.047-2.262c-1.844-1.137-4.106-1.738-6.535-1.738
		c-2.434,0-4.696,0.601-6.54,1.738c-2.406,1.481-5.187,2.262-8.046,2.262H0.125c-0.023,0-0.043,0.008-0.063,0.011
		c0.036,0.536,0.09,1.063,0.165,1.586h2.789c3.156,0,6.226-0.863,8.882-2.5c1.594-0.98,3.567-1.5,5.704-1.5
		c2.132,0,4.105,0.52,5.699,1.5c2.656,1.637,5.726,2.5,8.883,2.5h13.992c0.07-0.523,0.125-1.05,0.16-1.586
		C46.316,24.809,46.297,24.801,46.277,24.801L46.277,24.801z M46.277,24.801"/>
	<path style="fill:#AF8066;" d="M32.184,31.199c-3.157,0-6.227,0.867-8.883,2.5c-1.594,0.981-3.567,1.5-5.699,1.5
		c-2.137,0-4.11-0.519-5.704-1.5c-2.656-1.633-5.726-2.5-8.882-2.5H1.73c-0.101,0-0.199,0.024-0.289,0.059
		c0.192,0.523,0.411,1.039,0.641,1.543h0.934c2.859,0,5.64,0.781,8.046,2.261c1.844,1.137,4.106,1.739,6.54,1.739
		c2.429,0,4.691-0.602,6.539-1.739c2.402-1.48,5.183-2.261,8.043-2.261H44.32c0.227-0.504,0.446-1.02,0.641-1.543
		c-0.094-0.035-0.191-0.059-0.293-0.059H32.184z M32.184,31.199"/>
	<path style="fill:#AF8066;" d="M36.117,41.602h-8.918c-0.441,0-0.801,0.355-0.801,0.796c0,0.442,0.36,0.801,0.801,0.801h7.754
		c0.633-0.371,1.246-0.773,1.84-1.203C36.652,41.766,36.406,41.602,36.117,41.602L36.117,41.602z M36.117,41.602"/>
	<path style="fill:#AF8066;" d="M30.398,20.801c0,0.441,0.36,0.801,0.801,0.801h15.078c0.02,0,0.039-0.012,0.063-0.016
		c-0.039-0.531-0.094-1.063-0.164-1.586H31.199C30.758,20,30.398,20.359,30.398,20.801L30.398,20.801z M30.398,20.801"/>
	<path style="fill:#AF8066;" d="M20.801,16.043c0,0.441,0.355,0.801,0.801,0.801h23.671c0.079,0,0.153-0.024,0.223-0.047
		C45.348,16.27,45.184,15.75,45,15.242H21.602C21.156,15.242,20.801,15.602,20.801,16.043L20.801,16.043z M20.801,16.043"/>
	<path style="fill:#AF8066;" d="M11.199,20.047c0.442,0,0.801-0.356,0.801-0.801c0-0.441-0.359-0.797-0.801-0.797H0.488
		c-0.109,0.52-0.195,1.043-0.265,1.574c0.039,0.008,0.074,0.024,0.113,0.024H11.199z M11.199,20.047"/>
	<path style="fill:#AF8066;" d="M37.602,11.246c0,0.445,0.355,0.801,0.796,0.801h4.688c0.144,0,0.273-0.047,0.391-0.117
		c-0.282-0.504-0.582-1-0.899-1.481h-4.18C37.957,10.449,37.602,10.805,37.602,11.246L37.602,11.246z M37.602,11.246"/>
	<path style="fill:#AF8066;" d="M8,12.047c0.441,0,0.801-0.356,0.801-0.801c0-0.441-0.36-0.797-0.801-0.797H3.82
		c-0.316,0.481-0.617,0.977-0.898,1.481c0.117,0.07,0.246,0.117,0.39,0.117H8z M8,12.047"/>
	<path style="fill:#AF8066;" d="M6.285,16c0.445,0,0.801-0.359,0.801-0.801c0-0.441-0.356-0.801-0.801-0.801H1.73
		c-0.195,0.485-0.375,0.973-0.542,1.473C1.309,15.945,1.445,16,1.602,16H6.285z M6.285,16"/>
	<path style="fill:#AF8066;" d="M13.648,7.977c0.446,0,0.801-0.36,0.801-0.801c0-0.442-0.355-0.801-0.801-0.801H7.234
		C6.766,6.82,6.316,7.281,5.887,7.762c0.144,0.133,0.328,0.215,0.535,0.215H13.648z M13.648,7.977"/>
	<path style="fill:#FBD490;" d="M33.113,8H31.32c-0.047,0-0.062-0.066-0.019-0.078c0.719-0.238,1.211-0.969,1.078-1.789
		c-0.129-0.789-0.867-1.332-1.664-1.332h-3.914c-0.871,0-1.578,0.695-1.602,1.558c0,0.024-0.015,0.039-0.039,0.039h-2.273
		c-0.797,0-1.539,0.547-1.664,1.332c-0.133,0.825,0.359,1.551,1.074,1.79c0.043,0.015,0.031,0.082-0.016,0.082h-2.593
		c-0.797,0-1.54,0.543-1.665,1.328c-0.164,1.004,0.606,1.871,1.579,1.871h8c0.867,0,1.578-0.696,1.597-1.563
		c0-0.019,0.02-0.039,0.039-0.039h3.961c0.973,0,1.742-0.867,1.578-1.867C34.652,8.543,33.91,8,33.113,8L33.113,8z M33.113,8"/>
	<path style="fill:#FBD490;" d="M17.602,32.801c-3.473,0-6.403-1.832-6.403-4c0-2.168,2.93-4,6.403-4c3.468,0,6.398,1.832,6.398,4
		C24,30.969,21.07,32.801,17.602,32.801L17.602,32.801z M17.602,32.801"/>
	<path style="fill:#F3D55B;" d="M4,3.199C4,3.641,3.641,4,3.199,4C2.758,4,2.398,3.641,2.398,3.199c0-0.441,0.36-0.801,0.801-0.801
		C3.641,2.398,4,2.758,4,3.199L4,3.199z M4,3.199"/>
	<path style="fill:#F3D55B;" d="M15.199,15.199c0,0.442-0.355,0.801-0.801,0.801c-0.441,0-0.796-0.359-0.796-0.801
		c0-0.441,0.355-0.801,0.796-0.801C14.844,14.398,15.199,14.758,15.199,15.199L15.199,15.199z M15.199,15.199"/>
	<path style="fill:#F3D55B;" d="M17.602,18.398c0,0.446-0.36,0.801-0.801,0.801c-0.442,0-0.801-0.355-0.801-0.801
		c0-0.441,0.359-0.796,0.801-0.796C17.242,17.602,17.602,17.957,17.602,18.398L17.602,18.398z M17.602,18.398"/>
	<path style="fill:#F3D55B;" d="M32.801,28.801c0,0.441-0.36,0.801-0.801,0.801s-0.801-0.36-0.801-0.801
		C31.199,28.359,31.559,28,32,28S32.801,28.359,32.801,28.801L32.801,28.801z M32.801,28.801"/>
	<path style="fill:#F3D55B;" d="M6.398,44c0,0.441-0.355,0.801-0.796,0.801c-0.446,0-0.801-0.36-0.801-0.801
		s0.355-0.801,0.801-0.801C6.043,43.199,6.398,43.559,6.398,44L6.398,44z M6.398,44"/>
	<path style="fill:#F3D55B;" d="M2.398,38.398c0,0.446-0.355,0.801-0.796,0.801c-0.446,0-0.801-0.355-0.801-0.801
		c0-0.441,0.355-0.796,0.801-0.796C2.043,37.602,2.398,37.957,2.398,38.398L2.398,38.398z M2.398,38.398"/>
	<path style="fill:#F3D55B;" d="M11.199,0.801c0,0.441-0.355,0.801-0.801,0.801c-0.441,0-0.796-0.36-0.796-0.801
		C9.602,0.359,9.957,0,10.398,0C10.844,0,11.199,0.359,11.199,0.801L11.199,0.801z M11.199,0.801"/>
	<path style="fill:#F3D55B;" d="M38.398,8.801c0,0.441-0.355,0.801-0.796,0.801c-0.446,0-0.801-0.36-0.801-0.801
		C36.801,8.359,37.156,8,37.602,8C38.043,8,38.398,8.359,38.398,8.801L38.398,8.801z M38.398,8.801"/>
	<path style="fill:#F3D55B;" d="M44.801,43.199C44.801,43.641,44.441,44,44,44s-0.801-0.359-0.801-0.801
		c0-0.441,0.36-0.801,0.801-0.801S44.801,42.758,44.801,43.199L44.801,43.199z M44.801,43.199"/>
</g>
</svg>
