<?xml version="1.0" encoding="iso-8859-1"?>
<!-- Generator: Adobe Illustrator 22.0.1, SVG Export Plug-In . SVG Version: 6.00 Build 0)  -->
<svg version="1.1" id="Layer_1" xmlns="http://www.w3.org/2000/svg" xmlns:xlink="http://www.w3.org/1999/xlink" x="0px" y="0px"
	 viewBox="0 0 384 384" style="enable-background:new 0 0 384 384;" xml:space="preserve">
<g>
	<path style="fill:#FF4F19;" d="M19.797,276.977c-0.508-1.028-1.008-2.063-1.5-3.102C18.785,274.914,19.289,275.949,19.797,276.977
		L19.797,276.977z M19.797,276.977"/>
	<path style="fill:#FF4F19;" d="M17.863,272.945c-0.472-1.011-0.937-2.023-1.39-3.043C16.926,270.922,17.391,271.934,17.863,272.945
		L17.863,272.945z M17.863,272.945"/>
	<path style="fill:#FF4F19;" d="M16.023,268.875c-0.437-1.004-0.871-2.008-1.296-3.02C15.152,266.867,15.586,267.871,16.023,268.875
		L16.023,268.875z M16.023,268.875"/>
	<path style="fill:#FF4F19;" d="M14.293,264.785c-0.418-1.012-0.828-2.027-1.227-3.047
		C13.465,262.758,13.875,263.773,14.293,264.785L14.293,264.785z M14.293,264.785"/>
	<path style="fill:#FF4F19;" d="M242.848,6.82c30.847,8.465,58.586,24.442,81.152,45.825c-7.613-0.918-15.344-1.446-23.199-1.446
		c-99.418,0-181.184,75.559-191.012,172.383c0,0.023-0.004,0.051-0.008,0.078c0,0.012,0,0.02,0,0.031
		c25.352,4.395,53.621,6.707,82.219,6.707c33.488,0,66.23-3.136,94.695-9.074c11.231-2.351,21.762-5.125,31.313-8.262
		c3.355-1.113,6.969,0.727,8.074,4.086c1.098,3.356-0.727,6.969-4.086,8.079c-6.223,2.043-12.871,3.914-19.797,5.644
		c-0.082,0.067-0.121,0.164-0.203,0.231l-12.527,9.39l13.031,3.594c2.809,0.777,4.738,3.34,4.699,6.246
		c-0.035,2.91-2.023,5.43-4.847,6.129c-32.297,8.078-70.457,12.34-110.352,12.34c-2.82,0-5.305-1.844-6.125-4.543
		c-0.816-2.703,0.23-5.621,2.574-7.184c2.051-1.367,1.977-3.398,1.852-4.207c-0.125-0.812-0.676-2.773-3.051-3.449l-35.031-7.746
		c-0.051-0.012-0.09-0.047-0.141-0.063c-14.91-1.113-29.441-2.785-43.148-5.089c-0.078,2.218-0.129,4.441-0.129,6.679
		c0,43.363,14.41,83.34,38.664,115.473c14.859-6.77,30.144-13.637,44.805-13.067c23.054,1.012,34.835-5.492,34.949-5.562
		c3.062-1.707,6.969-0.656,8.715,2.387c1.742,3.05,0.73,6.925-2.309,8.695c-0.586,0.348-14.645,8.437-41.891,7.27
		c-10.754-0.551-23.425,4.867-35.949,10.554c0,0.004,0,0.004-0.004,0.004c4.121,4.742,8.465,9.281,13.024,13.602
		c-10.289-1.243-20.325-3.297-30.043-6.094h-0.004c-0.028-0.008-0.055-0.02-0.086-0.027c-1.606-0.461-3.203-0.946-4.793-1.454
		c-0.988-0.308-1.969-0.64-2.949-0.964c-0.379-0.125-0.758-0.25-1.137-0.379c-4.305-1.457-8.547-3.043-12.703-4.805
		c0.043,0,0.094-0.004,0.137,0c-39.579-16.75-72.379-46.379-93.118-83.644C56.887,344.121,119.781,384,192,384
		c106.039,0,192-85.961,192-192C384,103.566,324.207,29.109,242.848,6.82L242.848,6.82z M217.602,185.602
		c-0.207,0.011-0.547-0.008-0.821-0.008c-9.144,0-14.773,2.875-21.273,6.195c-6.906,3.523-14.547,7.422-26.301,7.422
		c-3.113,0-6.508-0.273-10.258-0.899c-3.484-0.582-5.844-3.882-5.261-7.363c0.574-3.488,3.863-5.883,7.363-5.261
		c13.769,2.281,20.648-1.227,28.637-5.301c7.152-3.657,14.992-7.957,28.019-7.586c3.531,0.054,6.352,2.969,6.293,6.504
		C223.945,182.801,221.086,185.602,217.602,185.602L217.602,185.602z M267.43,176.758c-5.742,7.312-19.735,8.609-23.887,8.836
		c-0.117,0.008-0.231,0.008-0.348,0.008c-3.375,0-6.195-2.641-6.383-6.051c-0.195-3.528,2.508-6.547,6.032-6.739
		c6.136-0.351,13.191-2.277,14.523-3.968c2.184-2.778,6.199-3.27,8.988-1.074C269.133,169.949,269.617,173.977,267.43,176.758
		L267.43,176.758z M164.543,266.879c-1.219,1.215-2.879,1.922-4.543,1.922s-3.332-0.707-4.543-1.86
		c-1.156-1.214-1.855-2.879-1.855-4.543c0-1.66,0.699-3.332,1.855-4.543c2.367-2.367,6.656-2.367,9.086,0
		c1.215,1.211,1.855,2.883,1.855,4.543C166.398,264.062,165.758,265.727,164.543,266.879L164.543,266.879z M247.742,298.879
		c-1.219,1.215-2.879,1.922-4.543,1.922s-3.332-0.707-4.543-1.86c-1.156-1.214-1.855-2.879-1.855-4.543
		c0-1.66,0.699-3.332,1.855-4.543c2.367-2.367,6.656-2.367,9.086,0c1.215,1.211,1.856,2.883,1.856,4.543
		C249.598,296.062,248.957,297.727,247.742,298.879L247.742,298.879z M298.941,158c-1.214,1.215-2.879,1.922-4.543,1.922
		c-1.66,0-3.332-0.707-4.543-1.86c-1.156-1.218-1.855-2.878-1.855-4.542c0-1.661,0.699-3.332,1.855-4.543
		c2.368-2.372,6.657-2.372,9.086,0c1.215,1.211,1.856,2.882,1.856,4.543C300.797,155.184,300.156,156.844,298.941,158L298.941,158z
		 M324.543,183.68c-1.219,1.215-2.883,1.918-4.543,1.918c-1.664,0-3.332-0.703-4.543-1.856c-1.156-1.219-1.859-2.879-1.859-4.543
		s0.703-3.332,1.859-4.543c2.367-2.371,6.652-2.371,9.086,0c1.211,1.211,1.855,2.879,1.855,4.543S325.758,182.523,324.543,183.68
		L324.543,183.68z M295.82,104.426c-0.484,0.113-0.957,0.16-1.433,0.16c-2.918,0-5.555-2.004-6.231-4.973
		c-0.789-3.445,1.364-6.875,4.813-7.664c19.847-4.539,37.062-10.133,51.515-16.57c2.653,3.461,5.196,7.012,7.61,10.652
		C336.41,93.262,317.535,99.465,295.82,104.426L295.82,104.426z M295.82,104.426"/>
	<path style="fill:#FF4F19;" d="M21.828,280.965c-0.558-1.063-1.105-2.129-1.64-3.203C20.723,278.836,21.27,279.902,21.828,280.965
		L21.828,280.965z M21.828,280.965"/>
	<path style="fill:#FF4F19;" d="M23.945,284.902c-0.617-1.113-1.218-2.234-1.812-3.359
		C22.727,282.668,23.332,283.789,23.945,284.902L23.945,284.902z M23.945,284.902"/>
	<path style="fill:#FF4F19;" d="M2.398,222.363c-0.113-0.718-0.226-1.441-0.332-2.16C2.172,220.922,2.285,221.645,2.398,222.363
		L2.398,222.363z M2.398,222.363"/>
	<path style="fill:#FF4F19;" d="M220.531,2.113c1.086,0.16,2.164,0.34,3.242,0.52C222.695,2.453,221.613,2.273,220.531,2.113
		L220.531,2.113z M220.531,2.113"/>
	<path style="fill:#FF4F19;" d="M225.113,2.855c1.16,0.2,2.309,0.418,3.461,0.641C227.422,3.273,226.273,3.055,225.113,2.855
		L225.113,2.855z M225.113,2.855"/>
	<path style="fill:#FF4F19;" d="M0.348,203.43c-0.039-0.633-0.082-1.266-0.114-1.903C0.266,202.164,0.312,202.797,0.348,203.43
		L0.348,203.43z M0.348,203.43"/>
	<path style="fill:#FF4F19;" d="M0.117,198.379c-0.019-0.535-0.043-1.067-0.055-1.602C0.074,197.312,0.098,197.844,0.117,198.379
		L0.117,198.379z M0.117,198.379"/>
	<path style="fill:#FF4F19;" d="M215.895,1.48c1.011,0.125,2.019,0.266,3.027,0.407C217.914,1.746,216.906,1.605,215.895,1.48
		L215.895,1.48z M215.895,1.48"/>
	<path style="fill:#FF4F19;" d="M196.863,0.062c0.614,0.016,1.223,0.047,1.832,0.067C198.086,0.109,197.477,0.078,196.863,0.062
		L196.863,0.062z M196.863,0.062"/>
	<path style="fill:#FF4F19;" d="M201.688,0.242c0.765,0.039,1.527,0.094,2.289,0.141C203.215,0.336,202.453,0.281,201.688,0.242
		L201.688,0.242z M201.688,0.242"/>
	<path style="fill:#FF4F19;" d="M229.641,3.699c1.23,0.242,2.457,0.504,3.679,0.774C232.098,4.203,230.871,3.941,229.641,3.699
		L229.641,3.699z M229.641,3.699"/>
	<path style="fill:#FF4F19;" d="M234.109,4.645c1.305,0.293,2.606,0.597,3.903,0.917C236.715,5.246,235.414,4.938,234.109,4.645
		L234.109,4.645z M234.109,4.645"/>
	<path style="fill:#FF4F19;" d="M238.512,5.688c1.39,0.343,2.769,0.703,4.148,1.082C241.281,6.395,239.902,6.031,238.512,5.688
		L238.512,5.688z M238.512,5.688"/>
	<path style="fill:#FF4F19;" d="M1.719,217.719c-0.094-0.711-0.188-1.418-0.278-2.129C1.531,216.301,1.625,217.008,1.719,217.719
		L1.719,217.719z M1.719,217.719"/>
	<path style="fill:#FF4F19;" d="M1.152,213.023c-0.078-0.695-0.156-1.39-0.222-2.085C0.996,211.633,1.074,212.328,1.152,213.023
		L1.152,213.023z M1.152,213.023"/>
	<path style="fill:#FF4F19;" d="M0.691,208.273c-0.054-0.675-0.117-1.347-0.164-2.023C0.574,206.926,0.637,207.598,0.691,208.273
		L0.691,208.273z M0.691,208.273"/>
	<path style="fill:#FF4F19;" d="M206.473,0.539c0.855,0.066,1.711,0.149,2.566,0.223C208.184,0.688,207.328,0.605,206.473,0.539
		L206.473,0.539z M206.473,0.539"/>
	<path style="fill:#FF4F19;" d="M6.184,240.5c-0.2-0.762-0.383-1.531-0.575-2.301C5.801,238.969,5.984,239.738,6.184,240.5
		L6.184,240.5z M6.184,240.5"/>
	<path style="fill:#FF4F19;" d="M12.684,260.734c-0.407-1.054-0.809-2.113-1.196-3.175
		C11.875,258.621,12.277,259.676,12.684,260.734L12.684,260.734z M12.684,260.734"/>
	<path style="fill:#FF4F19;" d="M7.395,244.93c-0.235-0.809-0.45-1.625-0.672-2.438C6.945,243.305,7.16,244.121,7.395,244.93
		L7.395,244.93z M7.395,244.93"/>
	<path style="fill:#FF4F19;" d="M5.078,236.027c-0.176-0.746-0.34-1.492-0.504-2.242C4.738,234.535,4.906,235.281,5.078,236.027
		L5.078,236.027z M5.078,236.027"/>
	<path style="fill:#FF4F19;" d="M11.285,256.984c-1.242-3.457-2.387-6.964-3.433-10.511C8.898,250.02,10.043,253.527,11.285,256.984
		L11.285,256.984z M11.285,256.984"/>
	<path style="fill:#FF4F19;" d="M4.078,231.516c-0.152-0.735-0.297-1.473-0.445-2.211C3.781,230.043,3.926,230.781,4.078,231.516
		L4.078,231.516z M4.078,231.516"/>
	<path style="fill:#FF4F19;" d="M3.184,226.961c-0.133-0.727-0.262-1.453-0.387-2.184C2.926,225.508,3.051,226.234,3.184,226.961
		L3.184,226.961z M3.184,226.961"/>
	<path style="fill:#FF4F19;" d="M211.207,0.953c0.938,0.094,1.871,0.203,2.805,0.309C213.078,1.156,212.145,1.047,211.207,0.953
		L211.207,0.953z M211.207,0.953"/>
	<path style="fill:#DB3F3D;" d="M117.227,368.832c-0.047-0.004-0.094,0-0.137,0c4.152,1.762,8.398,3.348,12.703,4.805
		c0.375,0.129,0.758,0.254,1.137,0.379c0.98,0.324,1.961,0.656,2.949,0.964c1.59,0.508,3.187,0.993,4.793,1.454
		c0.027,0.007,0.055,0.019,0.086,0.027c9.722,2.797,19.758,4.851,30.043,6.094c-4.559-4.321-8.903-8.86-13.02-13.602
		c-1.168,0.527-2.336,1.059-3.5,1.59c-4.582,2.086-9.082,4.125-13.453,5.887c-0.609-0.172-1.223-0.348-1.832-0.528
		c-2.16-0.644-4.293-1.336-6.422-2.047c-1.371-0.464-2.754-0.906-4.109-1.398c-1.488-0.535-2.945-1.137-4.414-1.707
		c-1.613-0.633-3.227-1.254-4.817-1.926c7.418,0.184,18.727-4.918,29.739-9.929c0.179-0.083,0.355-0.161,0.531-0.243
		c2.656,3.52,5.391,6.973,8.277,10.297c12.528-5.687,25.196-11.105,35.949-10.554c27.25,1.167,41.309-6.918,41.895-7.27
		c3.039-1.77,4.051-5.645,2.305-8.695c-1.742-3.043-5.649-4.094-8.711-2.387c-0.114,0.07-11.895,6.578-34.949,5.562
		c-14.661-0.566-29.946,6.301-44.805,13.067c-24.258-32.133-38.664-72.11-38.664-115.473c0-2.234,0.051-4.461,0.129-6.676
		c13.707,2.301,28.238,3.973,43.148,5.09c0.051,0.012,0.086,0.051,0.141,0.063l35.031,7.742c2.375,0.676,2.926,2.637,3.051,3.449
		c0.125,0.809,0.199,2.84-1.852,4.207c-2.344,1.563-3.394,4.485-2.574,7.184c0.816,2.699,3.305,4.543,6.125,4.543
		c39.895,0,78.055-4.262,110.348-12.34c2.828-0.699,4.816-3.219,4.851-6.129c0.039-2.906-1.894-5.469-4.699-6.246l-13.031-3.594
		l12.523-9.39c0.086-0.067,0.125-0.164,0.203-0.231c6.93-1.73,13.575-3.601,19.797-5.644c3.363-1.11,5.188-4.719,4.09-8.079
		c-1.109-3.359-4.719-5.199-8.078-4.086c-9.547,3.137-20.078,5.915-31.313,8.262c-28.461,5.938-61.203,9.074-94.691,9.074
		c-28.598,0-56.867-2.312-82.219-6.707c0-0.011,0-0.019,0-0.031c-0.426,4.235-0.664,8.52-0.812,12.832
		c-2.602-0.437-5.227-0.859-7.762-1.344c-3.477-0.66-5.758-4.011-5.094-7.48c0.657-3.477,4.004-5.75,7.481-5.094
		c2.004,0.383,4.152,0.653,6.195,1.008c9.828-96.824,91.594-172.383,191.012-172.383c7.855,0,15.586,0.528,23.199,1.446
		c-22.566-21.383-50.305-37.36-81.152-45.825c-0.063-0.019-0.125-0.035-0.188-0.05c-1.375-0.375-2.758-0.739-4.148-1.082
		c-0.164-0.043-0.332-0.083-0.5-0.126c-1.297-0.316-2.598-0.624-3.903-0.917c-0.261-0.059-0.527-0.114-0.789-0.172
		c-1.222-0.27-2.449-0.528-3.679-0.774c-0.356-0.07-0.711-0.137-1.067-0.203c-1.148-0.223-2.301-0.441-3.457-0.641
		c-0.449-0.078-0.898-0.148-1.344-0.222c-1.078-0.18-2.156-0.36-3.242-0.52c-0.535-0.078-1.07-0.148-1.609-0.226
		c-1.008-0.141-2.012-0.282-3.024-0.407c-0.628-0.078-1.257-0.144-1.886-0.214c-0.934-0.11-1.864-0.219-2.805-0.313
		c-0.719-0.07-1.445-0.129-2.168-0.191c-0.851-0.074-1.707-0.157-2.566-0.223c-0.828-0.059-1.664-0.105-2.496-0.156
		c-0.762-0.047-1.524-0.102-2.286-0.141c-0.996-0.051-1.996-0.078-2.996-0.113c-0.609-0.02-1.218-0.051-1.832-0.067
		C195.246,0.023,193.625,0,192,0C107.988,0,36.59,53.961,10.547,129.113c0.371-1.086,0.754-2.168,1.148-3.238
		c0.141,0.125,0.317,0.18,0.45,0.32c10.238,10.938,28.867,21.063,53.875,29.274c3.363,1.105,5.187,4.719,4.085,8.074
		c-0.886,2.699-3.386,4.406-6.082,4.406c-0.66,0-1.328-0.097-1.992-0.316c-23.828-7.824-42.539-17.531-54.664-28.274
		c0.973-3.418,2.008-6.808,3.149-10.152C3.707,148.883,0,170.008,0,192c0,1.598,0.023,3.191,0.062,4.777
		c0.012,0.535,0.04,1.067,0.055,1.602c0.035,1.051,0.071,2.101,0.121,3.148c0.032,0.637,0.074,1.27,0.11,1.903
		c0.054,0.941,0.109,1.882,0.179,2.82c0.051,0.676,0.11,1.348,0.168,2.023c0.075,0.887,0.149,1.778,0.235,2.665
		c0.07,0.695,0.144,1.39,0.222,2.085c0.094,0.856,0.188,1.711,0.293,2.567c0.086,0.711,0.18,1.418,0.278,2.129
		c0.109,0.828,0.222,1.656,0.343,2.484c0.11,0.719,0.219,1.442,0.332,2.16c0.129,0.805,0.262,1.61,0.403,2.414
		c0.125,0.731,0.25,1.457,0.387,2.184c0.14,0.781,0.292,1.562,0.449,2.344c0.144,0.738,0.289,1.476,0.445,2.211
		c0.156,0.757,0.324,1.515,0.492,2.269c0.168,0.75,0.332,1.496,0.508,2.242c0.168,0.727,0.352,1.45,0.527,2.172
		c0.192,0.77,0.379,1.539,0.579,2.301c0.171,0.668,0.355,1.328,0.539,1.992c0.218,0.813,0.437,1.629,0.668,2.438
		c0.148,0.515,0.308,1.031,0.46,1.543c1.047,3.547,2.188,7.054,3.434,10.507c0.07,0.192,0.133,0.387,0.203,0.579
		c0.387,1.062,0.789,2.117,1.196,3.171c0.124,0.336,0.25,0.672,0.378,1.004c0.399,1.024,0.813,2.036,1.227,3.047
		c0.148,0.36,0.289,0.715,0.437,1.071c0.422,1.011,0.86,2.019,1.297,3.023c0.149,0.34,0.297,0.684,0.45,1.023
		c0.453,1.02,0.918,2.036,1.386,3.043c0.145,0.313,0.289,0.621,0.434,0.934c0.492,1.039,0.992,2.07,1.504,3.102
		c0.129,0.261,0.258,0.523,0.39,0.785c0.536,1.074,1.082,2.14,1.637,3.203c0.102,0.191,0.203,0.383,0.305,0.578
		c0.597,1.125,1.199,2.246,1.816,3.355c0.055,0.098,0.11,0.192,0.16,0.29C44.848,322.453,77.645,352.082,117.227,368.832
		L117.227,368.832z M136.258,59.457c2.367-2.371,6.652-2.371,9.086,0c1.211,1.211,1.855,2.879,1.855,4.543s-0.644,3.324-1.855,4.48
		c-1.219,1.215-2.883,1.918-4.543,1.918c-1.664,0-3.332-0.703-4.543-1.855c-1.156-1.219-1.86-2.879-1.86-4.543
		S135.102,60.668,136.258,59.457L136.258,59.457z M83.867,84.824c4.957-7.793,13.813-11.027,19.774-7.234
		c5.964,3.797,6.781,13.187,1.824,20.976c-4.957,7.789-13.809,11.028-19.774,7.231C79.727,102.004,78.91,92.613,83.867,84.824
		L83.867,84.824z M44.508,219.855c-1.586-7.335,1.683-14.269,7.301-15.484c5.617-1.211,11.453,3.75,13.039,11.086
		c1.586,7.336-1.68,14.27-7.297,15.481C51.934,232.152,46.094,227.191,44.508,219.855L44.508,219.855z M44.508,219.855"/>
	<path style="fill:#DB3F3D;" d="M217.707,172.801c-13.027-0.371-20.871,3.929-28.019,7.586c-7.989,4.074-14.868,7.582-28.637,5.301
		c-3.5-0.618-6.789,1.773-7.363,5.261c-0.583,3.481,1.777,6.781,5.261,7.363c3.75,0.626,7.145,0.899,10.258,0.899
		c11.754,0,19.395-3.899,26.301-7.422c6.5-3.32,12.129-6.195,21.273-6.195c0.278,0,0.614,0.019,0.821,0.008
		c3.484,0,6.343-2.801,6.398-6.297C224.055,175.77,221.238,172.855,217.707,172.801L217.707,172.801z M217.707,172.801"/>
	<path style="fill:#DB3F3D;" d="M266.355,167.77c-2.785-2.196-6.804-1.7-8.988,1.074c-1.328,1.695-8.387,3.617-14.523,3.968
		c-3.524,0.196-6.223,3.215-6.032,6.739c0.188,3.414,3.008,6.051,6.383,6.051c0.117,0,0.231,0,0.348-0.008
		c4.152-0.223,18.145-1.524,23.891-8.836C269.617,173.977,269.133,169.949,266.355,167.77L266.355,167.77z M266.355,167.77"/>
	<path style="fill:#A03939;" d="M85.684,105.801c-5.961-3.797-6.778-13.188-1.821-20.977c4.957-7.789,13.809-11.027,19.774-7.234
		c5.965,3.797,6.781,13.187,1.824,20.976C100.504,106.359,91.648,109.598,85.684,105.801L85.684,105.801z M85.684,105.801"/>
	<path style="fill:#A03939;" d="M64.848,215.449c1.586,7.336-1.68,14.27-7.297,15.481c-5.617,1.215-11.453-3.746-13.039-11.082
		c-1.586-7.336,1.679-14.266,7.297-15.481C57.426,203.152,63.266,208.113,64.848,215.449L64.848,215.449z M64.848,215.449"/>
	<path style="fill:#A03939;" d="M140.801,70.398c1.66,0,3.324-0.703,4.543-1.918c1.211-1.156,1.855-2.816,1.855-4.48
		s-0.644-3.332-1.855-4.543c-2.43-2.371-6.719-2.371-9.086,0c-1.156,1.211-1.86,2.879-1.86,4.543s0.704,3.324,1.86,4.543
		C137.469,69.695,139.137,70.398,140.801,70.398L140.801,70.398z M140.801,70.398"/>
	<path style="fill:#DB3F3D;" d="M289.855,148.977c-1.156,1.214-1.855,2.882-1.855,4.543c0,1.664,0.699,3.324,1.855,4.546
		c1.215,1.149,2.883,1.856,4.543,1.856c1.664,0,3.329-0.707,4.547-1.918c1.211-1.156,1.856-2.82,1.856-4.484
		c0-1.661-0.645-3.329-1.856-4.543C296.512,146.609,292.227,146.609,289.855,148.977L289.855,148.977z M289.855,148.977"/>
	<path style="fill:#DB3F3D;" d="M315.457,174.656c-1.156,1.211-1.855,2.883-1.855,4.543c0,1.664,0.699,3.324,1.855,4.543
		c1.211,1.153,2.879,1.86,4.543,1.86s3.324-0.707,4.543-1.922c1.215-1.153,1.855-2.817,1.855-4.481s-0.64-3.332-1.855-4.543
		C322.113,172.289,317.824,172.289,315.457,174.656L315.457,174.656z M315.457,174.656"/>
	<path style="fill:#DB3F3D;" d="M155.457,257.855c-1.156,1.215-1.855,2.883-1.855,4.543c0,1.664,0.699,3.329,1.855,4.547
		c1.211,1.149,2.879,1.856,4.543,1.856s3.324-0.707,4.543-1.918c1.215-1.156,1.855-2.821,1.855-4.485c0-1.66-0.64-3.328-1.855-4.543
		C162.113,255.488,157.824,255.488,155.457,257.855L155.457,257.855z M155.457,257.855"/>
	<path style="fill:#DB3F3D;" d="M238.656,289.855c-1.156,1.215-1.855,2.883-1.855,4.543c0,1.664,0.699,3.329,1.855,4.547
		c1.211,1.149,2.883,1.856,4.543,1.856c1.664,0,3.324-0.707,4.543-1.918c1.215-1.156,1.86-2.821,1.86-4.485
		c0-1.66-0.645-3.328-1.86-4.543C245.312,287.488,241.023,287.488,238.656,289.855L238.656,289.855z M238.656,289.855"/>
	<path style="fill:#A03939;" d="M96.113,227.668c-0.664,3.469,1.617,6.82,5.094,7.484c2.539,0.481,5.16,0.903,7.762,1.34
		c0.148-4.312,0.386-8.597,0.816-12.832c0-0.027,0.004-0.051,0.008-0.078c-2.043-0.355-4.195-0.625-6.199-1.008
		C100.117,221.918,96.77,224.195,96.113,227.668L96.113,227.668z M96.113,227.668"/>
	<path style="fill:#A03939;" d="M62.031,167.633c0.664,0.215,1.332,0.316,1.992,0.316c2.696,0,5.196-1.707,6.082-4.406
		c1.102-3.355-0.722-6.969-4.085-8.074c-25.008-8.215-43.637-18.34-53.875-29.278c-0.133-0.136-0.309-0.191-0.45-0.32
		c-0.394,1.074-0.777,2.156-1.148,3.238c-0.008,0.036-0.02,0.067-0.031,0.098c-1.141,3.34-2.176,6.734-3.149,10.148
		C19.492,150.102,38.203,159.809,62.031,167.633L62.031,167.633z M62.031,167.633"/>
	<path style="fill:#A03939;" d="M147.504,358.652c-0.176,0.082-0.352,0.16-0.531,0.243c-11.012,5.011-22.321,10.113-29.739,9.929
		c1.59,0.672,3.204,1.297,4.817,1.926c1.469,0.57,2.926,1.172,4.414,1.707c1.355,0.492,2.738,0.934,4.109,1.398
		c2.129,0.711,4.262,1.403,6.422,2.047c0.609,0.18,1.219,0.356,1.832,0.528c4.371-1.762,8.871-3.801,13.453-5.887
		c1.164-0.531,2.332-1.063,3.5-1.59c0,0,0,0,0.004-0.004h-0.004C152.898,365.625,150.16,362.172,147.504,358.652L147.504,358.652z
		 M147.504,358.652"/>
	<path style="fill:#DB3F3D;" d="M344.484,75.379c-14.453,6.437-31.668,12.031-51.515,16.57c-3.449,0.789-5.602,4.219-4.813,7.664
		c0.676,2.969,3.313,4.973,6.231,4.973c0.476,0,0.949-0.051,1.433-0.16c21.715-4.961,40.59-11.164,56.274-18.395
		C349.68,82.391,347.137,78.84,344.484,75.379L344.484,75.379z M344.484,75.379"/>
</g>
</svg>
