<?xml version="1.0" encoding="iso-8859-1"?>
<!-- Generator: Adobe Illustrator 22.0.1, SVG Export Plug-In . SVG Version: 6.00 Build 0)  -->
<svg version="1.1" id="Layer_1" xmlns="http://www.w3.org/2000/svg" xmlns:xlink="http://www.w3.org/1999/xlink" x="0px" y="0px"
	 viewBox="0 0 43.5 45.301" style="enable-background:new 0 0 43.5 45.301;" xml:space="preserve">
<g>
	<path style="fill:#F3D55B;" d="M42.699,39.699H41.43L39.5,37.77V36.5c0-0.441-0.359-0.801-0.801-0.801
		c-0.441,0-0.801,0.36-0.801,0.801v1.27l-1.929,1.929h-1.27c-0.441,0-0.801,0.36-0.801,0.801s0.36,0.801,0.801,0.801h1.27
		l1.929,1.929v1.27c0,0.441,0.36,0.801,0.801,0.801c0.442,0,0.801-0.36,0.801-0.801v-1.27l1.93-1.929h1.269
		c0.442,0,0.801-0.36,0.801-0.801S43.141,39.699,42.699,39.699L42.699,39.699z M42.699,39.699"/>
	<path style="fill:#4482C3;" d="M40.301,22.102c0,10.16-8.239,18.398-18.403,18.398C11.738,40.5,3.5,32.262,3.5,22.102
		c0-10.164,8.238-18.403,18.398-18.403C32.062,3.699,40.301,11.938,40.301,22.102L40.301,22.102z M40.301,22.102"/>
	<path style="fill:#F3D55B;" d="M1.602,2.102c0,0.441-0.36,0.796-0.801,0.796C0.359,2.898,0,2.543,0,2.102
		c0-0.446,0.359-0.801,0.801-0.801C1.242,1.301,1.602,1.656,1.602,2.102L1.602,2.102z M1.602,2.102"/>
	<path style="fill:#F3D55B;" d="M3.199,40.504c0,0.441-0.355,0.797-0.801,0.797c-0.441,0-0.796-0.356-0.796-0.797
		c0-0.441,0.355-0.801,0.796-0.801C2.844,39.703,3.199,40.063,3.199,40.504L3.199,40.504z M3.199,40.504"/>
	<path style="fill:#F3D55B;" d="M16.398,43.898c0,0.446-0.355,0.801-0.796,0.801c-0.446,0-0.801-0.355-0.801-0.801
		c0-0.441,0.355-0.796,0.801-0.796C16.043,43.102,16.398,43.457,16.398,43.898L16.398,43.898z M16.398,43.898"/>
	<path style="fill:#F3D55B;" d="M11.602,24.5c0,0.441-0.36,0.801-0.801,0.801c-0.442,0-0.801-0.36-0.801-0.801
		c0-0.441,0.359-0.801,0.801-0.801C11.242,23.699,11.602,24.059,11.602,24.5L11.602,24.5z M11.602,24.5"/>
	<path style="fill:#F3D55B;" d="M35.828,0.801c0,0.441-0.359,0.801-0.801,0.801c-0.441,0-0.8-0.36-0.8-0.801
		c0-0.442,0.359-0.801,0.8-0.801C35.469,0,35.828,0.359,35.828,0.801L35.828,0.801z M35.828,0.801"/>
	<path style="fill:#F3D55B;" d="M43.102,34.398c0,0.446-0.36,0.801-0.801,0.801c-0.442,0-0.801-0.355-0.801-0.801
		c0-0.441,0.359-0.796,0.801-0.796C42.742,33.602,43.102,33.957,43.102,34.398L43.102,34.398z M43.102,34.398"/>
	<path style="fill:#A4E869;" d="M23.004,20.59c0.121,0.055,0.289,0.187,0.363,0.297c0.559,0.816,0.238,2.015,0.793,2.308
		c0.438,0.231,0.684,0.703,0.5,1.16c-0.765,1.875-0.105,4.02,1.672,5.493c1.25,1.035,0.211,3.433-0.844,5.32
		c-0.375,0.672,0.297,1.453,1.024,1.191c1.148-0.406,2.101-1,3.203-1.949c1.597-1.375,1.941-2.871,3.527-4.035
		c0.016-0.016,0.031-0.031,0.035-0.051c0.407-1.187,1.664-3.777,0.395-4.437c-1.184-0.617-1.629-2.399-2.781-3.614
		c-0.133-0.136-0.325-0.207-0.516-0.234c-1.414-0.18-2.055-1.258-3.008-0.543c-0.715,0.539-1.515,0.211-1.765-0.648
		c-0.082-0.278-0.223-0.528-0.739-0.688c-0.39-0.121-0.582-0.562-0.441-0.945c0.004-0.008,0.004-0.012,0.008-0.016
		c0.187-0.515-0.871-0.437-1.41-0.347c-0.153,0.027,0.359-0.582,0.191-0.485c-0.66,0.391-1.484-0.281-1.449-1.051
		c0.035-0.781,0.183-0.742,1.519-0.894c1.438-0.672,2.133-0.184,2.086,1.461c0.891,0.133,1.199-0.262,0.934-1.18
		c-0.078-0.265-0.016-0.566,0.152-0.789c1.641-2.129,3.008-3.059,5.516-3.918c0.41-0.141,0.636-0.574,0.523-0.992
		c-0.402-1.477-1.027-3.801-2.09-3.969C30.129,6.992,29.82,6.73,29.707,6.48c-0.371-0.859-0.625-1.222-1.332-1.429
		c-0.539-0.16-1.086,0.238-1.086,0.801c-0.012,1.718-0.008,3.203-1.977,1.238c-1.624-1.625-2.097-2.508-1.199-2.934
		c-0.043-0.347,0,0.02-0.039-0.328c-3.808-0.457-7.488,0.293-10.66,1.945c-0.059,0.032-0.078,0.11-0.047,0.168
		c1.246,2.293,1.5,3.5,1.363,6.18c-0.007,0.149,0.016,0.293,0.079,0.43c1.086,2.336,2.484,6.304,4.867,7.219
		C20.836,20.219,21.906,20.051,23.004,20.59L23.004,20.59z M23.004,20.59"/>
</g>
</svg>
