<?xml version="1.0" encoding="iso-8859-1"?>
<!-- Generator: Adobe Illustrator 22.0.1, SVG Export Plug-In . SVG Version: 6.00 Build 0)  -->
<svg version="1.1" id="Layer_1" xmlns="http://www.w3.org/2000/svg" xmlns:xlink="http://www.w3.org/1999/xlink" x="0px" y="0px"
	 viewBox="0 0 379.145 379.145" style="enable-background:new 0 0 379.145 379.145;" xml:space="preserve">
<g>
	<path style="fill:#B1C635;" d="M379.145,189.575c0,104.695-84.875,189.57-189.571,189.57C84.875,379.145,0,294.27,0,189.575
		C0,84.875,84.875,0,189.574,0C294.27,0,379.145,84.875,379.145,189.575L379.145,189.575z M379.145,189.575"/>
	<path style="fill:#9BD7D9;" d="M324.277,189.575c0,74.476-60.379,134.851-134.855,134.851
		c-74.477,0-134.852-60.375-134.852-134.851c0-74.481,60.375-134.856,134.852-134.856
		C263.898,54.719,324.277,115.094,324.277,189.575L324.277,189.575z M324.277,189.575"/>
	<path style="fill:#5C9340;" d="M260.16,130.215c0,0-29.074,6.008-39.488,0.434c0,0-6.942-9.016-26.477-1.289
		c0,0-34.285,20.605-34.73,41.207c0,0-9.547,40.793,26.48,46.371c0,0,37.754-12.449,42.532,2.144c0,0,1.312,18.036,4.777,21.899
		c0,0,5.644,8.293,5.211,13.301c0,0-3.914,16.746,1.305,29.625c0,0,3.464,11.16,3.035,14.597c0,0,32.988-9.449,43.402-40.351
		c0,0,6.074-21.473,6.512-27.051c0,0,8.679-24.898,10.855-32.629c0,0,7.809-23.18-5.215-20.168c0,0-9.117-8.598-15.629-15.031
		C276.219,156.832,263.637,132.36,260.16,130.215L260.16,130.215z M260.16,130.215"/>
	<path style="fill:#5C9340;" d="M289.242,162.414l-36.461-33.488c0,0,7.809-6.871,5.207-10.726
		c-2.601-3.868-8.242,1.285-13.019,1.285c-4.774,0-11.285,3.863-13.887,0.429c-2.609-3.437-4.344-2.574-6.945-0.429
		c-2.606,2.148-7.379,5.582-7.809,3.429c-0.437-2.14-8.25-1.281-8.683-3.429c-0.43-2.145,1.293-8.16-2.614-6.871
		c-3.894,1.285-9.543,5.586-10.414,7.73c-0.863,2.149-3.894,8.582-6.937,8.582c-3.043,0-10.852,1.719-12.149-0.855
		c-1.304-2.578-3.906-11.164-1.304-13.739c2.601-2.578,15.339,0.141,14.75-3.007c-0.586-3.145-2.086-10.055-0.172-11.039
		c1.918-0.981,7.117-12.141,10.593-13.43c3.469-1.289,12.59,3.433,13.895,0.43c0,0,0.434-9.012-1.305-10.305
		c-1.742-1.285-3.054-5.149-6.07-4.723c-3.051,0.434-4.356,3.438-2.18,4.723c2.18,1.293,3.907,6.437,2.606,6.437
		c-1.313,0-13.028,0.86-13.457-2.14c-0.438-3.004,1.304-10.305,5.195-12.883c3.926-2.57,12.164-2.152,14.77-0.863
		c2.609,1.293,5.644-1.289,6.515-3.426c0.863-2.149-12.336-9.332-16.25-9.332c0,0,102.856,7.672,120.516,112.832
		c0,0-10.957-36.106-18.336-38.246c0,0-3.906,2.574-6.512,2.144c-2.601-0.433-15.625-8.59-16.488-6.437
		c-0.871,2.148,6.074,9.437,13.457,10.297c7.367,0.859,7.808,1.718,8.238,5.582c0.434,3.859,1.735,9.875,0.875,13.734
		C304,158.547,298.789,170.145,289.242,162.414L289.242,162.414z M289.242,162.414"/>
	<path style="fill:#5C9340;" d="M181.602,85.996c0,0-3.469,2.153-5.211,5.149c-1.735,3.012-1.735,5.586-1.735,5.586
		s2.196,1.281,4.426,1.293c2.227,0.008,8.172-2.149,8.172-5.153C187.25,89.864,181.602,85.996,181.602,85.996L181.602,85.996z
		 M181.602,85.996"/>
	<path style="fill:#5C9340;" d="M176.395,60.239c0,0-10.418,12.449-15.618,13.738c-5.215,1.293-13.894,5.578-16.062,7.301
		c-2.168,1.715-9.551-1.289-5.207-4.723c4.344-3.437,16.054-11.168,13.453-12.023c-2.602-0.856-14.324,7.297-19.098,10.734
		c-4.777,3.43-8.687,8.574-10.843,12.02c-2.184,3.433-1.743,12.453-6.516,14.168c-4.781,1.718-25.613,10.296-32.551,16.312
		c-6.945,6.008-14.422,10.445-17.473,16.457c-3.035,6.008,1.54-9.594,4.223-15.355c0,0,18.453-32.872,60.559-53.481
		C131.262,65.387,163.371,57.239,176.395,60.239L176.395,60.239z M176.395,60.239"/>
	<path style="fill:#5C9340;" d="M54.871,211.36c0,0-4.348-23.188,0.43-25.336c4.777-2.145,6.215-2.602,10.422,1.719
		c4.191,4.316,9.976,11.589,12.14,15.453c2.184,3.863,9.996,8.582,9.996,11.59c0,3.007-1.742,10.304,0,13.738
		c1.731,3.437,4.332,3.871,8.25,5.582c3.907,1.711,11.278,4.293,15.618,8.164c4.335,3.863,10.421,8.582,9.113,13.73
		c-1.305,5.161-3.906,12.883-3.035,15.887c0.859,3.008,3.906,8.156,0.437,10.301c-3.476,2.148-6.078,1.723-5.648,5.578
		c0.441,3.863,4.789,15.875,6.09,18.02C118.688,305.786,64.566,282.754,54.871,211.36L54.871,211.36z M54.871,211.36"/>
	<path style="fill:#5C9340;" d="M60.801,163.649c0.863-2.996,3.035-18.024,0.422-18.024c-5.094,18.786-4.907,18.547-6.946,32.625"/>
</g>
</svg>
