<?xml version="1.0" encoding="iso-8859-1"?>
<!-- Generator: Adobe Illustrator 22.0.1, SVG Export Plug-In . SVG Version: 6.00 Build 0)  -->
<svg version="1.1" id="Layer_1" xmlns="http://www.w3.org/2000/svg" xmlns:xlink="http://www.w3.org/1999/xlink" x="0px" y="0px"
	 viewBox="0 0 46.8 47.76" style="enable-background:new 0 0 46.8 47.76;" xml:space="preserve">
<g>
	<g>
		<defs>
			<rect id="SVGID_1_" width="46.8" height="47.76"/>
		</defs>
		<clipPath id="SVGID_2_">
			<use xlink:href="#SVGID_1_"  style="overflow:visible;"/>
		</clipPath>
		<path style="clip-path:url(#SVGID_2_);fill:#285680;" d="M46.398,23.599c0,12.813-10.386,23.199-23.199,23.199
			C10.387,46.798,0,36.412,0,23.599C0,10.787,10.387,0.4,23.199,0.4C36.012,0.4,46.398,10.787,46.398,23.599L46.398,23.599z
			 M46.398,23.599"/>
		<path style="clip-path:url(#SVGID_2_);fill:#24AE5F;" d="M23.199,0.4c-3.222,0-6.293,0.66-9.082,1.848
			c-0.125,0.757-0.762,2.054-0.742,2.468c0.09,0.016,5.898-5.921,5.18-1.914c-0.465,2.582-5.215,2.567-5.012,5.164
			c4.988,1.957,6.73-3.714,10.969-3.691c1.414,0.008,5.031-2.227,5.722-1.77c2.797,1.84-0.64,8.372-2.777,6.2
			c-2.059-2.059-4.996,0.718-4.863,3.929c1.07,0.047,1.527-3.039,2.488-2.007c1.059,1.132,0.676,3.414-0.789,3.937
			c-1.477,0.527-7.262-3.91-5.84-0.547c1.563,3.735-4.683,6.621,1.621,5.117c2.973-0.714,1.985,1.547,3.387,2.629
			c1.672,1.282,0.934-1.773,2.148-1.308c1.774,0.687-0.304,2.453,2.473,1.172c3.254-1.489,2.031,0.828,3.027,2.343
			c1.871,2.825,6.461,5.535,8.871,1.801c0.567-0.879,0.204-7.844,3.774-3.172c2.269,2.969,1.492-3.508,1.801-5.207
			C42.836,7.595,33.863,0.4,23.199,0.4L23.199,0.4z M23.199,0.4"/>
	</g>
	<path style="fill:#FAC176;" d="M26.336,34.064l-4.277-3.203l-2.871,0.109l-2.973-0.933l-2.328-1.606L8.602,29.65l-2.176,1.055
		L4,33.97l0.859,3.828c0.243,0.317,0.496,0.625,0.758,0.93l4.485,2.094l3.031,0.406l1.801,3.699l0.054,0.371
		c2.551,0.969,5.321,1.5,8.211,1.5c1.996,0,3.934-0.25,5.781-0.726l0.61-3.633l2.765-2.246l1.149-3.586l-5.777-0.023L26.336,34.064z
		 M26.336,34.064"/>
	<path style="fill:#88C057;" d="M0.301,27.318c0.109-0.012,0.125-0.02,0.133-0.027c1.039-1.039,1.902-1.211,2.765-2.77
		c0.867-1.555-0.172-1.555,0-4.148c0.176-2.594-0.172-1.383,0-4.149c0.063-0.996-0.039-1.543-1.25-1.933
		C0.699,17.142,0,20.287,0,23.599C0,24.865,0.105,26.107,0.301,27.318L0.301,27.318z M0.301,27.318"/>
	<path style="fill:#FAC176;" d="M24,42.798c-0.867-0.066-4.066-1.066-4.801-2.398c-0.734-1.332-2.332-3.602-2.398-3.199
		c-0.047,0.269-7.289-2.196-12.266-3.953L4,33.97l0.859,3.828c0.243,0.317,0.496,0.625,0.758,0.93l4.485,2.094l3.031,0.406
		l1.801,3.699l0.054,0.371c2.551,0.969,5.321,1.5,8.211,1.5c1.996,0,3.934-0.25,5.781-0.726l0.461-2.754
		c-0.406-0.129-0.879-0.297-1.441-0.52C25.801,41.935,24.867,42.865,24,42.798L24,42.798z M24,42.798"/>
	<path style="fill:#88C057;" d="M32.355,40.193l1.149-3.586l-5.777-0.023l-1.391-2.52l-4.281-3.203l-2.867,0.109l-2.977-0.933
		l-2.328-1.606L8.602,29.65l-2.176,1.055l-1.891,2.543c4.977,1.757,12.219,4.222,12.266,3.953c0.066-0.403,1.664,1.867,2.398,3.199
		c0.735,1.332,3.934,2.332,4.801,2.398c0.867,0.067,1.801-0.863,4,0c0.562,0.223,1.035,0.391,1.441,0.52l0.149-0.879L32.355,40.193z
		 M32.355,40.193"/>
	<path style="fill:#88C057;" d="M31.941,2.123c-0.156,2.929-0.269,5.043-0.269,5.043l-4.473,4.472c0,0,4.192,6.004,4.473,6.703
		c0.277,0.7,3.769,1.536,4.469,1.118c0.699-0.418,3.351-2.653,4.468-1.118c0.782,1.071,0.68,2.004,1.157,2.661
		c0.332,0.003,0.742,0.226,1.257,0.742c0.727,0.218,1.555,0.433,2.289,0.613c0.247-1.434,0.067-3.988,0.243-4.965
		C43.625,10.439,38.539,4.814,31.941,2.123L31.941,2.123z M31.941,2.123"/>
	<path style="fill:#FAC176;" d="M34.664,3.443C34.52,6.209,34.398,8.4,34.398,8.4l-3.199,3.199c0,0,3,4.301,3.199,4.801
		c0.204,0.5,2.704,1.102,3.204,0.801c0.5-0.301,2.398-1.903,3.199-0.801c0.801,1.102,0.301,2,1.597,2.398
		c1.102,0.34,2.614,0.676,3.063,0.77c0.004-0.887,0.008-1.711,0.094-2.176C43.902,11.431,39.922,6.443,34.664,3.443L34.664,3.443z
		 M34.664,3.443"/>
</g>
</svg>
