<?xml version="1.0" encoding="iso-8859-1"?>
<!-- Generator: Adobe Illustrator 22.0.1, SVG Export Plug-In . SVG Version: 6.00 Build 0)  -->
<svg version="1.1" id="Layer_1" xmlns="http://www.w3.org/2000/svg" xmlns:xlink="http://www.w3.org/1999/xlink" x="0px" y="0px"
	 viewBox="0 0 384 384" style="enable-background:new 0 0 384 384;" xml:space="preserve">
<g>
	<path style="fill:#FFD042;" d="M330.133,58.66c0.633,0.656,1.258,1.317,1.879,1.981C331.391,59.977,330.766,59.316,330.133,58.66
		L330.133,58.66z M330.133,58.66"/>
	<path style="fill:#FFD042;" d="M338.422,67.82c1.164,1.368,2.305,2.754,3.43,4.153C340.727,70.574,339.586,69.188,338.422,67.82
		L338.422,67.82z M338.422,67.82"/>
	<path style="fill:#FFD042;" d="M332.512,61.176c1.187,1.273,2.359,2.566,3.515,3.875C334.871,63.742,333.699,62.449,332.512,61.176
		L332.512,61.176z M332.512,61.176"/>
	<path style="fill:#FFD042;" d="M305.707,37.293c0.605,0.441,1.207,0.887,1.805,1.34C306.914,38.18,306.312,37.734,305.707,37.293
		L305.707,37.293z M305.707,37.293"/>
	<path style="fill:#FFD042;" d="M323.684,52.289c0.636,0.598,1.269,1.203,1.894,1.813C324.953,53.492,324.32,52.887,323.684,52.289
		L323.684,52.289z M323.684,52.289"/>
	<path style="fill:#FFD042;" d="M308.898,39.695c0.961,0.735,1.911,1.481,2.856,2.235C310.809,41.176,309.859,40.43,308.898,39.695
		L308.898,39.695z M308.898,39.695"/>
	<path style="fill:#FFD042;" d="M342.109,72.297c0.602,0.75,1.196,1.504,1.786,2.265C343.305,73.801,342.711,73.047,342.109,72.297
		L342.109,72.297z M342.109,72.297"/>
	<path style="fill:#FFD042;" d="M312.855,42.816c1.344,1.09,2.676,2.196,3.989,3.321C315.531,45.012,314.199,43.906,312.855,42.816
		L312.855,42.816z M312.855,42.816"/>
	<path style="fill:#FFD042;" d="M319.711,48.648c1.262,1.125,2.508,2.266,3.738,3.422C322.219,50.914,320.973,49.773,319.711,48.648
		L319.711,48.648z M319.711,48.648"/>
	<path style="fill:#FFD042;" d="M316.941,46.219c0.633,0.543,1.258,1.093,1.883,1.644C318.199,47.312,317.574,46.762,316.941,46.219
		L316.941,46.219z M316.941,46.219"/>
	<path style="fill:#FFD042;" d="M336.277,65.336c0.621,0.703,1.235,1.41,1.844,2.125C337.512,66.75,336.898,66.039,336.277,65.336
		L336.277,65.336z M336.277,65.336"/>
	<path style="fill:#FFD042;" d="M223.809,381.363c-3.043,0.508-6.11,0.942-9.2,1.305
		C217.699,382.305,220.766,381.871,223.809,381.363L223.809,381.363z M223.809,381.363"/>
	<path style="fill:#FFD042;" d="M212.258,382.938c-0.684,0.07-1.371,0.132-2.055,0.199
		C210.887,383.07,211.574,383.008,212.258,382.938L212.258,382.938z M212.258,382.938"/>
	<path style="fill:#FFD042;" d="M228.117,380.594c-1.035,0.195-2.066,0.386-3.105,0.57
		C226.051,380.984,227.082,380.789,228.117,380.594L228.117,380.594z M228.117,380.594"/>
	<path style="fill:#FFD042;" d="M207.676,383.359c-0.653,0.051-1.313,0.102-1.969,0.149
		C206.363,383.461,207.023,383.414,207.676,383.359L207.676,383.359z M207.676,383.359"/>
	<path style="fill:#FFD042;" d="M203.012,383.68c-0.614,0.031-1.227,0.066-1.844,0.097
		C201.785,383.746,202.398,383.711,203.012,383.68L203.012,383.68z M203.012,383.68"/>
	<path style="fill:#FFD042;" d="M232.438,379.719c-1.094,0.234-2.188,0.461-3.29,0.676
		C230.25,380.18,231.344,379.953,232.438,379.719L232.438,379.719z M232.438,379.719"/>
	<path style="fill:#FFD042;" d="M383.312,175.777c0.051,0.614,0.106,1.227,0.153,1.84
		C383.418,177.004,383.363,176.391,383.312,175.777L383.312,175.777z M383.312,175.777"/>
	<path style="fill:#FFD042;" d="M383.719,181.598c0.023,0.496,0.047,0.996,0.07,1.492
		C383.766,182.594,383.742,182.094,383.719,181.598L383.719,181.598z M383.719,181.598"/>
	<path style="fill:#FFD042;" d="M383.906,186.199c0.012,0.461,0.028,0.922,0.039,1.383
		C383.934,187.121,383.918,186.66,383.906,186.199L383.906,186.199z M383.906,186.199"/>
	<path style="fill:#FFD042;" d="M382.855,171.043c0.086,0.781,0.168,1.559,0.243,2.344
		C383.023,172.602,382.941,171.824,382.855,171.043L382.855,171.043z M382.855,171.043"/>
	<path style="fill:#FFD042;" d="M290.605,27.23c0.555,0.336,1.11,0.668,1.665,1.008C291.715,27.898,291.16,27.566,290.605,27.23
		L290.605,27.23z M290.605,27.23"/>
	<path style="fill:#FFD042;" d="M239.598,5.949c0.363,0.094,0.726,0.192,1.09,0.285C240.324,6.141,239.961,6.043,239.598,5.949
		L239.598,5.949z M239.598,5.949"/>
	<path style="fill:#FFD042;" d="M234.691,4.77c0.336,0.078,0.672,0.152,1.008,0.23C235.363,4.922,235.027,4.848,234.691,4.77
		L234.691,4.77z M234.691,4.77"/>
	<path style="fill:#FFD042;" d="M248.625,8.492c0.402,0.125,0.805,0.25,1.207,0.379C249.43,8.742,249.027,8.617,248.625,8.492
		L248.625,8.492z M248.625,8.492"/>
	<path style="fill:#FFD042;" d="M230.391,3.844c0.32,0.062,0.636,0.133,0.957,0.199C231.027,3.977,230.711,3.906,230.391,3.844
		L230.391,3.844z M230.391,3.844"/>
	<path style="fill:#FFD042;" d="M302.031,34.652c0.789,0.551,1.574,1.11,2.352,1.672C303.605,35.762,302.82,35.203,302.031,34.652
		L302.031,34.652z M302.031,34.652"/>
	<path style="fill:#FFD042;" d="M252.832,9.844c0.34,0.113,0.68,0.222,1.016,0.34C253.512,10.066,253.172,9.957,252.832,9.844
		L252.832,9.844z M252.832,9.844"/>
	<path style="fill:#FFD042;" d="M211.484,0.977c0.2,0.023,0.399,0.046,0.602,0.066C211.883,1.023,211.684,1,211.484,0.977
		L211.484,0.977z M211.484,0.977"/>
	<path style="fill:#FFD042;" d="M201.805,0.246c0.121,0.008,0.234,0.016,0.355,0.02C202.039,0.262,201.926,0.254,201.805,0.246
		L201.805,0.246z M201.805,0.246"/>
	<path style="fill:#FFD042;" d="M221.016,2.18c0.265,0.043,0.531,0.086,0.796,0.129C221.547,2.266,221.281,2.223,221.016,2.18
		L221.016,2.18z M221.016,2.18"/>
	<path style="fill:#FFD042;" d="M225.344,2.895c0.344,0.058,0.683,0.117,1.023,0.175C226.027,3.012,225.688,2.953,225.344,2.895
		L225.344,2.895z M225.344,2.895"/>
	<path style="fill:#FFD042;" d="M243.855,7.094c0.336,0.094,0.676,0.183,1.008,0.281C244.531,7.277,244.191,7.188,243.855,7.094
		L243.855,7.094z M243.855,7.094"/>
	<path style="fill:#FFD042;" d="M257.453,11.453c0.442,0.16,0.879,0.32,1.317,0.485C258.332,11.773,257.895,11.613,257.453,11.453
		L257.453,11.453z M257.453,11.453"/>
	<path style="fill:#FFD042;" d="M278.531,20.566c0.629,0.321,1.258,0.645,1.883,0.969C279.789,21.211,279.16,20.887,278.531,20.566
		L278.531,20.566z M278.531,20.566"/>
	<path style="fill:#FFD042;" d="M282.664,22.723c0.531,0.285,1.063,0.57,1.59,0.863C283.727,23.293,283.195,23.008,282.664,22.723
		L282.664,22.723z M282.664,22.723"/>
	<path style="fill:#FFD042;" d="M298.289,32.094c0.578,0.386,1.16,0.773,1.734,1.164C299.449,32.867,298.867,32.48,298.289,32.094
		L298.289,32.094z M298.289,32.094"/>
	<path style="fill:#FFD042;" d="M294.477,29.617c0.746,0.473,1.488,0.949,2.23,1.434C295.965,30.566,295.223,30.09,294.477,29.617
		L294.477,29.617z M294.477,29.617"/>
	<path style="fill:#FFD042;" d="M286.633,24.914c0.699,0.395,1.394,0.797,2.086,1.203C288.027,25.711,287.332,25.309,286.633,24.914
		L286.633,24.914z M286.633,24.914"/>
	<path style="fill:#FFD042;" d="M261.617,13.02c0.34,0.132,0.68,0.257,1.016,0.39C262.297,13.277,261.957,13.152,261.617,13.02
		L261.617,13.02z M261.617,13.02"/>
	<path style="fill:#FFD042;" d="M274.488,18.582c0.504,0.238,1.004,0.48,1.504,0.727C275.492,19.062,274.992,18.82,274.488,18.582
		L274.488,18.582z M274.488,18.582"/>
	<path style="fill:#FFD042;" d="M266.078,14.82c0.473,0.2,0.945,0.399,1.414,0.602C267.023,15.219,266.551,15.02,266.078,14.82
		L266.078,14.82z M266.078,14.82"/>
	<path style="fill:#FFD042;" d="M270.18,16.598c0.527,0.234,1.054,0.472,1.582,0.711C271.234,17.07,270.707,16.832,270.18,16.598
		L270.18,16.598z M270.18,16.598"/>
	<path style="fill:#FFD042;" d="M329.895,58.418c-1.192-1.23-2.403-2.445-3.629-3.645C327.492,55.973,328.703,57.188,329.895,58.418
		L329.895,58.418z M329.895,58.418"/>
	<path style="fill:#FFD042;" d="M349.805,82.633c0.922,1.324,1.824,2.656,2.711,4.004c-1.582-2.407-3.215-4.778-4.903-7.106
		c0.735,1.016,1.461,2.047,2.18,3.078C349.797,82.617,349.801,82.625,349.805,82.633L349.805,82.633z M349.805,82.633"/>
	<path style="fill:#FFD042;" d="M192,260.57c-26.234,0-51.273-1.754-74.199-4.937c1.605,9.695,3.937,19.148,6.941,28.293
		c-46.64-5.785-85.242-17.375-108.312-32.274c-0.039-0.027-0.075-0.05-0.11-0.074c-0.734-0.473-1.449-0.953-2.152-1.437
		c-0.098-0.067-0.195-0.133-0.293-0.2c-0.73-0.503-1.441-1.011-2.137-1.523c-0.066-0.051-0.129-0.102-0.199-0.148
		c-0.598-0.446-1.184-0.899-1.758-1.348c-0.152-0.121-0.308-0.246-0.461-0.367c-0.629-0.5-1.246-1.004-1.84-1.512
		c6,20.91,15.45,40.348,27.708,57.672c9.57,4.23,20.542,8.062,32.675,11.418c4.235,1.172,8.602,2.285,13.11,3.332
		c2.492,0.582,5.023,1.14,7.589,1.68c0,0-0.011-0.024-0.031-0.071c-0.043-0.09-0.133-0.273-0.25-0.535
		c-0.418-0.91-1.242-2.773-2.09-5.074c-0.246-0.66-0.488-1.352-0.726-2.07c-0.238-0.715-0.473-1.457-0.688-2.207
		c-0.195-0.68-0.375-1.364-0.539-2.051c-0.472-1.985-0.785-3.973-0.785-5.754c0-0.34,0.012-0.676,0.035-1.004
		c0.047-0.59,0.141-1.149,0.274-1.672c0.129-0.488,0.304-0.937,0.519-1.352c0.102-0.195,0.215-0.378,0.34-0.554
		c0.879-1.242,2.313-1.989,4.524-1.946c0.449,0.008,0.902,0.024,1.359,0.051c0.125,0.004,0.254,0.02,0.379,0.028
		c0.328,0.019,0.656,0.039,0.988,0.066c0.176,0.016,0.352,0.035,0.524,0.055c0.285,0.027,0.566,0.05,0.851,0.086
		c0.203,0.023,0.406,0.05,0.609,0.078c0.258,0.035,0.516,0.066,0.778,0.101c0.211,0.032,0.426,0.071,0.637,0.102
		c0.253,0.039,0.503,0.078,0.757,0.121c0.219,0.039,0.442,0.082,0.664,0.125c0.247,0.043,0.493,0.09,0.743,0.137
		c0.226,0.047,0.453,0.097,0.679,0.144c0.246,0.051,0.489,0.102,0.735,0.156c0.23,0.051,0.464,0.11,0.699,0.165
		c0.242,0.058,0.48,0.113,0.723,0.171c0.238,0.059,0.476,0.125,0.718,0.188c0.239,0.059,0.473,0.121,0.711,0.183
		c0.242,0.067,0.485,0.137,0.727,0.204c0.238,0.07,0.48,0.136,0.719,0.207c0.238,0.066,0.48,0.14,0.718,0.215
		c0.242,0.07,0.489,0.144,0.735,0.222c0.238,0.074,0.476,0.152,0.714,0.231c0.25,0.078,0.497,0.156,0.747,0.238
		c0.238,0.078,0.476,0.16,0.718,0.242c0.25,0.086,0.5,0.168,0.75,0.258c0.239,0.082,0.477,0.168,0.715,0.254
		c0.254,0.09,0.512,0.179,0.766,0.273c0.234,0.086,0.469,0.176,0.703,0.262c0.262,0.098,0.523,0.195,0.785,0.293
		c0.231,0.09,0.465,0.18,0.695,0.269c0.27,0.102,0.536,0.208,0.805,0.313c0.227,0.09,0.453,0.18,0.68,0.269
		c0.277,0.114,0.551,0.223,0.828,0.336c0.223,0.09,0.441,0.18,0.664,0.274c0.285,0.117,0.57,0.234,0.859,0.355
		c0.207,0.09,0.418,0.18,0.629,0.27c0.301,0.125,0.602,0.254,0.903,0.383c0.199,0.086,0.398,0.175,0.601,0.261
		c0.313,0.137,0.625,0.274,0.938,0.411c0.191,0.082,0.379,0.168,0.57,0.253c0.324,0.145,0.652,0.29,0.98,0.438
		c0.18,0.082,0.356,0.16,0.536,0.242c0.343,0.156,0.691,0.313,1.035,0.473c0.156,0.07,0.312,0.14,0.469,0.215
		c0.374,0.172,0.753,0.347,1.128,0.523c0.125,0.059,0.25,0.113,0.372,0.172c0.41,0.191,0.82,0.387,1.234,0.578
		c0.094,0.047,0.191,0.09,0.285,0.137c0.445,0.211,0.891,0.422,1.34,0.633c0.055,0.027,0.113,0.054,0.168,0.082
		c3.34,1.593,6.723,3.254,10.152,4.922c-4.531-8.821-8.465-17.993-11.601-27.54C145.77,286.582,168.402,288,192,288
		c21.543,0,42.289-1.18,61.715-3.367l25.058-3.488c44.227-7.407,79.282-20.305,97.75-36.118
		c-5.996,20.907-15.441,40.34-27.691,57.664c-36.391,16.09-93.086,27.418-156.832,26.454c-19.262-0.293-38.074-9.079-55.754-17.684
		c8.383,16.348,19.043,31.336,31.563,44.547c0.035,0.004,0.066,0.004,0.097,0.004c0.02,0.023,0.039,0.039,0.059,0.058
		c7.879,0.332,15.898,0.5,24.035,0.5c44.414,0,85.363-5.047,118.465-13.531c-22.348,17.551-48.672,30.27-77.403,36.547
		C319.367,360.777,384,283.941,384,192c0,6.414-0.328,12.754-0.945,19.008C359.148,239.629,282.691,260.57,192,260.57L192,260.57z
		 M192,260.57"/>
	<path style="fill:#FFD042;" d="M197.465,0.082c-0.344-0.008-0.692-0.02-1.039-0.023c0.027,0,0.054,0,0.082,0
		C196.828,0.066,197.145,0.074,197.465,0.082L197.465,0.082z M197.465,0.082"/>
	<path style="fill:#FFD042;" d="M346.16,77.551c0.063,0.082,0.117,0.168,0.18,0.25c0.34,0.461,0.683,0.918,1.019,1.383
		c-1.109-1.524-2.238-3.032-3.39-4.524c0.738,0.957,1.465,1.922,2.187,2.891H346.16L346.16,77.551z M346.16,77.551"/>
	<path style="fill:#FFD042;" d="M207.238,0.602c-0.246-0.02-0.492-0.04-0.738-0.059c0.137,0.012,0.27,0.023,0.406,0.031
		C207.02,0.586,207.129,0.594,207.238,0.602L207.238,0.602z M207.238,0.602"/>
	<path style="fill:#FFD042;" d="M355.883,92.012c1.312,2.156,2.597,4.328,3.832,6.535c-35.313,19.078-97.211,31.738-167.715,31.738
		c-17.668,0-34.793-0.793-51.094-2.285c-8.242,14.234-14.703,29.629-19.086,45.875c0.016,0,0.028,0.004,0.043,0.004l-0.004,0.012
		c6.676,0.867,13.52,1.621,20.516,2.242v-0.004c36.512,2.473,60.379,17.93,82.926,21.969c6.027,1.078,10.433-5.536,6.996-10.602
		l-6.899-10.176c68.168-3.972,124.481-19.922,150.274-41.34c3.285,10.782,5.648,21.965,7.004,33.458
		c-3.531-30.157-14.047-58.176-29.895-82.399c1.074,1.637,2.121,3.293,3.145,4.965C355.91,92.008,355.895,92.008,355.883,92.012
		L355.883,92.012z M201.602,179.199c-5.305,0-9.602-2.863-9.602-6.398c0-3.535,4.297-6.403,9.602-6.403
		c5.3,0,9.597,2.868,9.597,6.403C211.199,176.336,206.902,179.199,201.602,179.199L201.602,179.199z M201.602,179.199"/>
	<path style="fill:#FFD042;" d="M216.871,1.602c-0.34-0.043-0.683-0.086-1.027-0.129c0.32,0.039,0.636,0.078,0.957,0.121
		C216.824,1.594,216.848,1.598,216.871,1.602L216.871,1.602z M216.871,1.602"/>
	<path style="fill:#FFD042;" d="M196.598,383.941c0.515-0.011,1.027-0.035,1.543-0.05
		C197.625,383.906,197.113,383.93,196.598,383.941L196.598,383.941z M196.598,383.941"/>
	<path style="fill:#FF9300;" d="M154.855,380.395c-1.101-0.215-2.203-0.442-3.3-0.676
		C152.652,379.953,153.754,380.18,154.855,380.395L154.855,380.395z M154.855,380.395"/>
	<path style="fill:#FF9300;" d="M187.402,383.941c-0.515-0.011-1.031-0.035-1.543-0.05
		C186.371,383.906,186.887,383.93,187.402,383.941L187.402,383.941z M187.402,383.941"/>
	<path style="fill:#FF9300;" d="M158.992,381.164c-1.043-0.184-2.082-0.375-3.117-0.574
		C156.91,380.789,157.949,380.98,158.992,381.164L158.992,381.164z M158.992,381.164"/>
	<path style="fill:#FF9300;" d="M169.402,382.668c-3.093-0.363-6.172-0.797-9.218-1.309
		C163.234,381.871,166.309,382.305,169.402,382.668L169.402,382.668z M169.402,382.668"/>
	<path style="fill:#FF9300;" d="M178.293,383.508c-0.656-0.047-1.316-0.098-1.973-0.149
		C176.977,383.414,177.633,383.461,178.293,383.508L178.293,383.508z M178.293,383.508"/>
	<path style="fill:#FF9300;" d="M173.805,383.137c-0.692-0.067-1.379-0.129-2.067-0.199
		C172.426,383.008,173.117,383.07,173.805,383.137L173.805,383.137z M173.805,383.137"/>
	<path style="fill:#FF9300;" d="M182.832,383.777c-0.617-0.031-1.23-0.066-1.844-0.097
		C181.602,383.711,182.215,383.746,182.832,383.777L182.832,383.777z M182.832,383.777"/>
	<path style="fill:#FF9300;" d="M87.461,353c-3.008-1.961-5.961-4-8.848-6.121c-0.32-0.234-0.636-0.465-0.953-0.699
		c-1.387-1.032-2.762-2.075-4.121-3.141c0,0,0,0-0.004,0h0.004c1.547,0.395,3.113,0.781,4.691,1.16
		c0.243,0.059,0.485,0.121,0.727,0.176c1.633,0.391,3.277,0.773,4.941,1.145c0.008,0.003,0.012,0.003,0.016,0.003
		c24.727,5.528,53.242,9.192,83.895,10.485c-12.52-13.211-23.18-28.199-31.563-44.551c-3.387-1.648-6.73-3.289-10.027-4.859
		c-0.059-0.028-0.114-0.055-0.172-0.082c-0.445-0.211-0.891-0.426-1.336-0.637c-0.098-0.043-0.191-0.09-0.289-0.133
		c-0.41-0.195-0.82-0.387-1.231-0.578c-0.125-0.059-0.25-0.117-0.371-0.172c-0.379-0.176-0.754-0.351-1.129-0.523
		c-0.156-0.075-0.312-0.145-0.468-0.215c-0.348-0.16-0.692-0.317-1.035-0.473c-0.18-0.082-0.36-0.16-0.536-0.242
		c-0.328-0.148-0.656-0.293-0.984-0.441c-0.188-0.082-0.379-0.168-0.566-0.25c-0.317-0.141-0.629-0.278-0.942-0.411
		c-0.199-0.089-0.402-0.175-0.601-0.261c-0.301-0.129-0.598-0.258-0.899-0.383c-0.211-0.09-0.422-0.18-0.633-0.27
		c-0.285-0.121-0.574-0.238-0.859-0.355c-0.219-0.094-0.441-0.184-0.66-0.274c-0.278-0.113-0.555-0.226-0.832-0.336
		c-0.223-0.089-0.449-0.179-0.676-0.269c-0.27-0.105-0.539-0.211-0.809-0.316c-0.23-0.086-0.461-0.176-0.691-0.266
		c-0.262-0.102-0.523-0.195-0.785-0.293c-0.235-0.09-0.469-0.176-0.703-0.262c-0.258-0.094-0.512-0.183-0.77-0.277
		c-0.238-0.082-0.476-0.168-0.715-0.25c-0.25-0.09-0.496-0.172-0.746-0.258c-0.242-0.082-0.48-0.164-0.722-0.242
		c-0.247-0.082-0.497-0.16-0.743-0.242c-0.238-0.075-0.48-0.153-0.718-0.227c-0.243-0.078-0.489-0.152-0.735-0.226
		c-0.238-0.071-0.476-0.145-0.715-0.215c-0.242-0.071-0.48-0.137-0.718-0.203c-0.242-0.067-0.485-0.137-0.727-0.204
		c-0.238-0.062-0.476-0.124-0.715-0.187c-0.238-0.059-0.476-0.125-0.715-0.184c-0.242-0.058-0.484-0.113-0.726-0.171
		c-0.231-0.055-0.465-0.114-0.699-0.165c-0.243-0.054-0.489-0.105-0.731-0.156c-0.226-0.047-0.453-0.097-0.679-0.144
		c-0.25-0.047-0.497-0.094-0.747-0.141c-0.218-0.039-0.441-0.082-0.66-0.121c-0.254-0.043-0.508-0.082-0.758-0.121
		c-0.214-0.035-0.425-0.07-0.64-0.102c-0.258-0.039-0.516-0.066-0.774-0.101c-0.203-0.028-0.41-0.055-0.613-0.078
		c-0.281-0.036-0.566-0.059-0.848-0.086c-0.175-0.02-0.351-0.039-0.523-0.055c-0.332-0.027-0.66-0.047-0.988-0.07
		c-0.129-0.008-0.254-0.02-0.383-0.024c-0.453-0.027-0.906-0.043-1.359-0.051c-2.211-0.043-3.645,0.704-4.524,1.946
		c-0.121,0.176-0.234,0.359-0.336,0.554c-0.219,0.411-0.394,0.864-0.519,1.352c-0.137,0.523-0.231,1.082-0.274,1.672
		c-0.023,0.328-0.035,0.66-0.035,1.004c-0.004,1.781,0.313,3.769,0.785,5.75c0.16,0.687,0.344,1.375,0.535,2.055
		c0.219,0.75,0.45,1.492,0.688,2.207c0.238,0.718,0.484,1.41,0.726,2.066c0.852,2.301,1.676,4.168,2.09,5.078
		c0.121,0.262,0.207,0.441,0.25,0.535c0.024,0.047,0.035,0.071,0.035,0.071c-2.57-0.54-5.101-1.102-7.589-1.68
		c-4.508-1.047-8.875-2.164-13.11-3.332c-12.133-3.356-23.105-7.188-32.679-11.418c-12.258-17.328-21.704-36.762-27.704-57.672
		v-0.004c0.594,0.508,1.211,1.012,1.836,1.516c0.153,0.121,0.309,0.242,0.465,0.367c0.574,0.449,1.156,0.898,1.758,1.344
		c0.066,0.05,0.133,0.101,0.199,0.148c0.696,0.516,1.406,1.02,2.137,1.527c0.094,0.067,0.195,0.133,0.293,0.2
		c0.699,0.48,1.418,0.961,2.152,1.437c0.035,0.024,0.071,0.047,0.106,0.07c23.07,14.899,61.675,26.493,108.316,32.278
		c-3.004-9.149-5.336-18.598-6.945-28.297c-49.223-6.836-88.672-20.27-109.18-37.125c-0.074-0.059-0.144-0.117-0.219-0.18
		c-0.613-0.512-1.214-1.023-1.797-1.539c-0.093-0.086-0.191-0.168-0.281-0.25c-0.625-0.562-1.234-1.129-1.816-1.699
		c-0.086-0.082-0.164-0.164-0.25-0.25c-0.481-0.477-0.949-0.957-1.403-1.441c-0.14-0.145-0.277-0.297-0.414-0.446
		c-0.515-0.558-1.019-1.125-1.492-1.691c0,0-0.004,0-0.004-0.004C0.328,204.754,0,198.414,0,192
		c0,91.945,64.637,168.781,150.945,187.586c-22.824-4.984-44.121-14.043-63.117-26.352C87.703,353.156,87.582,353.078,87.461,353
		L87.461,353z M121.602,313.602c7.73,4.531,13.199,10,12.796,19.199C134,342,97.199,323.199,96,313.602
		C94.801,304,111.832,307.875,121.602,313.602L121.602,313.602z M121.602,313.602"/>
	<path style="fill:#FF9300;" d="M203.527,0.348c0.762,0.047,1.524,0.093,2.282,0.148C205.051,0.441,204.289,0.391,203.527,0.348
		L203.527,0.348z M203.527,0.348"/>
	<path style="fill:#FF9300;" d="M192,0c1.148,0,2.297,0.012,3.441,0.031C194.297,0.012,193.148,0,192,0L192,0z M192,0"/>
	<path style="fill:#FF9300;" d="M178.055,0.504c0.918-0.066,1.836-0.125,2.757-0.18C179.891,0.379,178.973,0.438,178.055,0.504
		L178.055,0.504z M178.055,0.504"/>
	<path style="fill:#FF9300;" d="M192,0c-1.129,0-2.254,0.012-3.375,0.031c0.156-0.004,0.316,0,0.477-0.004
		C190.066,0.008,191.031,0,192,0L192,0z M192,0"/>
	<path style="fill:#FF9300;" d="M355.883,92.012c0.012,0,0.027-0.004,0.043-0.008c-1.024-1.672-2.071-3.324-3.145-4.965
		c-0.086-0.133-0.176-0.269-0.265-0.402c-0.887-1.348-1.789-2.68-2.711-4.004C351.926,85.691,353.941,88.828,355.883,92.012
		L355.883,92.012z M355.883,92.012"/>
	<path style="fill:#FF9300;" d="M277.863,20.273c0.09,0.047,0.176,0.09,0.266,0.133c0.644,0.324,1.281,0.653,1.918,0.981
		c0.465,0.242,0.93,0.48,1.391,0.726c0.328,0.172,0.652,0.344,0.976,0.52c0.777,0.414,1.551,0.836,2.324,1.262L285,24.039
		c0.441,0.246,0.887,0.484,1.328,0.734c0.156,0.09,0.317,0.165,0.473,0.254c3.922,2.231,7.75,4.598,11.492,7.09
		c0.051,0.035,0.098,0.071,0.148,0.106c-5.457,0.246-10.851,0.726-16.179,1.418c-3.957,0.699-7.992,1.351-12.094,1.961
		c-44.438,8.683-83.371,32.699-111.106,66.304c0.008,0,0.016,0.004,0.024,0.004l-0.004,0.004
		c10.707,0.617,21.699,0.941,32.918,0.941c13.895,0,27.457-0.488,40.547-1.425c2.5-0.176,4.984-0.371,7.449-0.582l23.391-2.543
		c32.636-4.328,61.051-11.563,82.769-20.754c-0.722-0.969-1.449-1.934-2.187-2.891c-0.028-0.031-0.051-0.066-0.078-0.098
		c-0.586-0.761-1.184-1.515-1.782-2.265c-0.086-0.109-0.171-0.215-0.257-0.324c-1.125-1.399-2.266-2.785-3.43-4.153
		c-0.102-0.121-0.199-0.238-0.301-0.359c-0.609-0.711-1.223-1.422-1.844-2.125c-0.082-0.098-0.168-0.191-0.254-0.285
		c-1.152-1.309-2.324-2.598-3.511-3.875c-0.168-0.18-0.332-0.36-0.5-0.535c-0.621-0.664-1.246-1.325-1.879-1.981
		c-0.078-0.082-0.16-0.16-0.238-0.242c-1.192-1.23-2.403-2.445-3.629-3.645c-0.227-0.222-0.457-0.449-0.688-0.671
		c-0.625-0.61-1.258-1.215-1.894-1.813c-0.079-0.074-0.157-0.144-0.235-0.219c-1.23-1.156-2.476-2.297-3.738-3.422
		c-0.297-0.261-0.59-0.523-0.887-0.785c-0.625-0.551-1.25-1.101-1.883-1.64l-0.097-0.082c-1.313-1.129-2.645-2.235-3.989-3.321
		c-0.367-0.297-0.734-0.593-1.101-0.89c-0.945-0.754-1.895-1.496-2.856-2.235c-0.46-0.355-0.921-0.711-1.386-1.062
		c-0.598-0.453-1.2-0.895-1.805-1.34c-0.441-0.324-0.883-0.648-1.324-0.965c-0.781-0.566-1.563-1.125-2.352-1.676
		c-0.668-0.468-1.336-0.933-2.008-1.394c-0.578-0.391-1.156-0.778-1.734-1.164c-0.527-0.352-1.055-0.696-1.586-1.043
		c-0.738-0.481-1.48-0.961-2.23-1.434c-0.731-0.461-1.465-0.922-2.207-1.379c-0.551-0.336-1.106-0.672-1.664-1.004
		c-0.625-0.375-1.254-0.746-1.883-1.117c-0.696-0.406-1.391-0.805-2.09-1.203c-0.789-0.449-1.582-0.891-2.375-1.328
		c-0.531-0.289-1.059-0.578-1.59-0.863c-0.746-0.399-1.496-0.793-2.25-1.188c-0.625-0.324-1.254-0.648-1.887-0.965
		c-0.839-0.429-1.687-0.847-2.539-1.261c-0.5-0.247-1-0.485-1.5-0.727c-0.906-0.43-1.816-0.855-2.73-1.273
		c-0.524-0.239-1.051-0.477-1.578-0.711c-0.891-0.399-1.789-0.793-2.688-1.176c-0.469-0.203-0.941-0.402-1.414-0.602
		c-1.144-0.48-2.293-0.953-3.445-1.41c-0.336-0.133-0.676-0.258-1.016-0.39c-0.945-0.368-1.894-0.731-2.847-1.082
		c-0.438-0.165-0.875-0.325-1.317-0.485c-1.195-0.433-2.398-0.859-3.605-1.273c-0.336-0.114-0.676-0.223-1.016-0.336
		c-0.996-0.332-1.996-0.656-3.004-0.973c-0.402-0.129-0.801-0.258-1.207-0.379c-1.246-0.387-2.5-0.762-3.758-1.121
		c-0.336-0.094-0.672-0.183-1.008-0.277c-1.054-0.297-2.109-0.582-3.167-0.86c-0.364-0.093-0.727-0.191-1.09-0.285
		c-1.293-0.328-2.594-0.648-3.899-0.949c-0.336-0.078-0.672-0.152-1.008-0.23c-1.113-0.25-2.226-0.497-3.347-0.727
		c-0.317-0.066-0.633-0.137-0.953-0.199c-1.336-0.274-2.676-0.528-4.024-0.774c-0.34-0.058-0.679-0.117-1.023-0.175
		c-1.172-0.207-2.348-0.403-3.532-0.586c-0.265-0.043-0.531-0.086-0.8-0.129c-1.371-0.207-2.754-0.399-4.137-0.578
		C238.551,4.414,259.082,10.855,277.863,20.273L277.863,20.273z M277.863,20.273"/>
	<path style="fill:#FF9300;" d="M349.793,82.609c-0.719-1.031-1.445-2.062-2.18-3.078c-0.086-0.117-0.172-0.234-0.254-0.347
		c-0.336-0.465-0.679-0.922-1.019-1.383C347.512,79.387,348.668,80.988,349.793,82.609L349.793,82.609z M349.793,82.609"/>
	<path style="fill:#FF9300;" d="M202.336,0.277c-0.059-0.004-0.117-0.007-0.176-0.011c-0.121-0.004-0.234-0.012-0.355-0.02
		c-0.571-0.027-1.149-0.047-1.723-0.074C200.836,0.203,201.586,0.238,202.336,0.277L202.336,0.277z M202.336,0.277"/>
	<path style="fill:#FF9300;" d="M209.328,0.777c-0.695-0.062-1.39-0.121-2.09-0.175c-0.109-0.008-0.218-0.016-0.328-0.028
		C207.719,0.641,208.523,0.707,209.328,0.777L209.328,0.777z M209.328,0.777"/>
	<path style="fill:#FF9300;" d="M216.801,1.594c-0.321-0.043-0.637-0.082-0.957-0.121c-0.754-0.094-1.512-0.184-2.266-0.27
		C214.652,1.324,215.73,1.453,216.801,1.594L216.801,1.594z M216.801,1.594"/>
	<path style="fill:#FF9300;" d="M212.945,1.137c-0.285-0.032-0.574-0.063-0.859-0.094c-0.203-0.02-0.402-0.047-0.602-0.066
		c-0.41-0.039-0.82-0.075-1.23-0.114C211.152,0.945,212.051,1.039,212.945,1.137L212.945,1.137z M212.945,1.137"/>
	<path style="fill:#FF9300;" d="M198.887,0.125c-0.473-0.02-0.949-0.031-1.422-0.043c-0.32-0.008-0.641-0.016-0.961-0.023
		C197.301,0.078,198.094,0.098,198.887,0.125L198.887,0.125z M198.887,0.125"/>
	<path style="fill:#FF9300;" d="M187.633,0.055c-0.024,0-0.043,0-0.063,0c-0.308,0.007-0.613,0.015-0.922,0.023
		c-0.476,0.012-0.953,0.027-1.425,0.043C186.023,0.094,186.828,0.074,187.633,0.055L187.633,0.055z M187.633,0.055"/>
	<path style="fill:#FF9300;" d="M184.148,0.164c-0.589,0.024-1.179,0.047-1.769,0.074c-0.238,0.016-0.473,0.028-0.711,0.039
		C182.492,0.234,183.32,0.195,184.148,0.164L184.148,0.164z M184.148,0.164"/>
	<path style="fill:#FF7400;" d="M192,0c-0.969,0-1.934,0.008-2.898,0.027C190.066,0.012,191.031,0,192,0L192,0z M192,0"/>
	<path style="fill:#FF7400;" d="M284.738,23.895c-0.773-0.426-1.547-0.848-2.324-1.262
		C283.191,23.047,283.969,23.465,284.738,23.895L284.738,23.895z M284.738,23.895"/>
	<path style="fill:#FF7400;" d="M298.441,32.223c-0.05-0.035-0.097-0.071-0.148-0.106c-3.742-2.492-7.57-4.859-11.488-7.09
		c-0.157-0.089-0.321-0.164-0.477-0.254c-0.441-0.25-0.883-0.488-1.324-0.734c3.887,2.16,7.691,4.449,11.406,6.859
		c-4.59,0.981-9.32,1.891-14.148,2.743C287.59,32.949,292.984,32.469,298.441,32.223L298.441,32.223z M298.441,32.223"/>
	<path style="fill:#FF7400;" d="M278.129,20.406c-0.09-0.043-0.176-0.086-0.266-0.133C277.953,20.32,278.039,20.363,278.129,20.406
		L278.129,20.406z M278.129,20.406"/>
	<path style="fill:#FF7400;" d="M281.438,22.113c-0.461-0.246-0.926-0.484-1.391-0.726
		C280.512,21.629,280.977,21.867,281.438,22.113L281.438,22.113z M281.438,22.113"/>
	<path style="fill:#FF7400;" d="M42.062,79.309c0.747,0.296,1.497,0.589,2.258,0.879c0.418,0.16,0.844,0.32,1.266,0.48
		c0.715,0.27,1.434,0.535,2.16,0.797c0.442,0.16,0.879,0.32,1.324,0.476c0.774,0.278,1.559,0.551,2.344,0.821
		c0.395,0.136,0.785,0.273,1.18,0.41c1.129,0.383,2.269,0.762,3.426,1.133c0.492,0.16,0.996,0.316,1.492,0.472
		c0.703,0.223,1.406,0.446,2.121,0.664c0.609,0.192,1.23,0.375,1.847,0.563c0.606,0.18,1.211,0.359,1.821,0.539
		c0.676,0.199,1.351,0.395,2.035,0.59c0.543,0.156,1.094,0.308,1.644,0.465c0.743,0.207,1.489,0.414,2.243,0.617
		c0.379,0.105,0.769,0.207,1.152,0.308c2.992,0.801,6.051,1.571,9.18,2.309c0.273,0.066,0.547,0.133,0.824,0.199
		c1.023,0.239,2.059,0.477,3.098,0.711c0.246,0.055,0.492,0.11,0.738,0.164c1.117,0.25,2.238,0.496,3.367,0.735
		c0.012,0.004,0.023,0.007,0.039,0.007c21.445,4.571,45.602,7.774,71.441,9.262c27.735-33.605,66.672-57.625,111.106-66.308
		c-23.992,3.554-50.395,5.543-78.168,5.543c-38.289,0-73.992-3.762-104.336-10.227c12.723-8.266,26.484-15.066,41.039-20.172
		c-1.73,0.602-3.457,1.215-5.16,1.867c-0.984,0.375-1.957,0.766-2.934,1.157c-2.5,1.003-4.976,2.058-7.421,3.164
		c-0.84,0.378-1.68,0.746-2.512,1.132c-3.067,1.438-6.094,2.942-9.071,4.532c-0.136,0.074-0.281,0.14-0.417,0.214
		c-3.297,1.774-6.532,3.645-9.711,5.602c-0.25,0.156-0.497,0.324-0.747,0.481c-2.8,1.746-5.554,3.562-8.257,5.445
		c-0.578,0.402-1.149,0.816-1.723,1.226c-2.453,1.75-4.863,3.551-7.23,5.411c-0.5,0.394-1.004,0.781-1.5,1.179
		c-8.59,6.891-16.579,14.496-23.868,22.742c-0.277,0.313-0.55,0.637-0.828,0.954c-2.148,2.46-4.23,4.98-6.254,7.55
		c-0.3,0.379-0.601,0.758-0.898,1.141c-0.781,1.012-1.543,2.035-2.309,3.055c1.039,0.437,2.094,0.871,3.16,1.3
		C41.363,79.035,41.715,79.172,42.062,79.309L42.062,79.309z M42.062,79.309"/>
	<path style="fill:#FF7400;" d="M145.203,5.77c-0.285,0.074-0.582,0.128-0.867,0.199c-3.551,0.91-7.059,1.929-10.527,3.035
		c-0.817,0.258-1.618,0.551-2.426,0.82c-0.082,0.028-0.16,0.055-0.238,0.082c4.875-1.636,9.835-3.082,14.875-4.328
		C145.75,5.645,145.477,5.703,145.203,5.77L145.203,5.77z M145.203,5.77"/>
	<path style="fill:#FFEDB9;" d="M359.715,98.547c-1.235-2.207-2.52-4.379-3.832-6.535c-1.942-3.184-3.957-6.321-6.078-9.379
		c-0.004-0.008-0.008-0.016-0.012-0.024c-1.125-1.621-2.281-3.222-3.453-4.808c-0.063-0.082-0.117-0.168-0.18-0.25h-0.004
		c-21.718,9.191-50.133,16.426-82.765,20.754L240,100.848c-2.469,0.211-4.949,0.406-7.453,0.582
		c-13.09,0.937-26.652,1.425-40.547,1.425c-11.215,0-22.211-0.324-32.918-0.941c-6.738,8.164-12.828,16.871-18.16,26.086
		c-0.176-0.016-0.352-0.035-0.531-0.051c0.171,0.016,0.343,0.031,0.515,0.051c16.301,1.492,33.426,2.285,51.094,2.285
		C262.504,130.285,324.402,117.625,359.715,98.547L359.715,98.547z M359.715,98.547"/>
	<path style="fill:#FFEDB9;" d="M39.43,105.668c-0.364-0.152-0.731-0.301-1.094-0.453C38.699,105.367,39.066,105.516,39.43,105.668
		L39.43,105.668z M39.43,105.668"/>
	<path style="fill:#FFEDB9;" d="M35,103.777c-0.047-0.019-0.098-0.043-0.145-0.062C34.902,103.738,34.953,103.758,35,103.777
		L35,103.777z M35,103.777"/>
	<path style="fill:#FFEDB9;" d="M31.594,102.223c-0.332-0.157-0.66-0.317-0.989-0.473C30.934,101.906,31.262,102.066,31.594,102.223
		L31.594,102.223z M31.594,102.223"/>
	<path style="fill:#FFEDB9;" d="M106.703,123.664c-0.433-0.07-0.867-0.141-1.301-0.211
		C105.836,123.523,106.27,123.594,106.703,123.664L106.703,123.664z M106.703,123.664"/>
	<path style="fill:#FFEDB9;" d="M43.145,107.16c-0.379-0.148-0.75-0.297-1.125-0.449C42.395,106.863,42.766,107.012,43.145,107.16
		L43.145,107.16z M43.145,107.16"/>
	<path style="fill:#FFEDB9;" d="M101.031,122.695c-0.593-0.105-1.183-0.215-1.773-0.32
		C99.848,122.48,100.438,122.59,101.031,122.695L101.031,122.695z M101.031,122.695"/>
	<path style="fill:#FFEDB9;" d="M96.027,121.773c-0.582-0.113-1.168-0.222-1.746-0.335C94.859,121.551,95.445,121.66,96.027,121.773
		L96.027,121.773z M96.027,121.773"/>
	<path style="fill:#FFEDB9;" d="M24.285,98.547c0.02,0.008,0.039,0.019,0.055,0.027C24.324,98.566,24.305,98.555,24.285,98.547
		L24.285,98.547z M24.285,98.547"/>
	<path style="fill:#FFEDB9;" d="M84.988,119.508c-0.535-0.117-1.066-0.238-1.601-0.36C83.922,119.27,84.453,119.391,84.988,119.508
		L84.988,119.508z M84.988,119.508"/>
	<path style="fill:#FFEDB9;" d="M74.742,117.086c-0.242-0.059-0.484-0.121-0.722-0.18C74.258,116.965,74.5,117.027,74.742,117.086
		L74.742,117.086z M74.742,117.086"/>
	<path style="fill:#FFEDB9;" d="M80.262,118.43c-0.528-0.125-1.059-0.25-1.582-0.375C79.203,118.18,79.734,118.305,80.262,118.43
		L80.262,118.43z M80.262,118.43"/>
	<path style="fill:#FFEDB9;" d="M90.242,120.629c-0.336-0.07-0.672-0.137-1.004-0.207C89.57,120.492,89.906,120.559,90.242,120.629
		L90.242,120.629z M90.242,120.629"/>
	<path style="fill:#FFEDB9;" d="M69.934,115.836c-0.481-0.133-0.961-0.266-1.442-0.395C68.973,115.57,69.453,115.703,69.934,115.836
		L69.934,115.836z M69.934,115.836"/>
	<path style="fill:#FFEDB9;" d="M112.711,124.605c-0.637-0.093-1.27-0.187-1.902-0.285
		C111.441,124.418,112.074,124.512,112.711,124.605L112.711,124.605z M112.711,124.605"/>
	<path style="fill:#FFEDB9;" d="M47.008,108.625c-0.082-0.031-0.168-0.063-0.25-0.094C46.84,108.562,46.926,108.594,47.008,108.625
		L47.008,108.625z M47.008,108.625"/>
	<path style="fill:#FFEDB9;" d="M51.867,110.344c-0.414-0.145-0.832-0.285-1.242-0.43C51.035,110.059,51.453,110.199,51.867,110.344
		L51.867,110.344z M51.867,110.344"/>
	<path style="fill:#FFEDB9;" d="M55.957,111.707c-0.43-0.141-0.855-0.277-1.277-0.418C55.105,111.426,55.527,111.566,55.957,111.707
		L55.957,111.707z M55.957,111.707"/>
	<path style="fill:#FFEDB9;" d="M65.512,114.609c-0.473-0.136-0.942-0.269-1.407-0.402C64.57,114.34,65.039,114.473,65.512,114.609
		L65.512,114.609z M65.512,114.609"/>
	<path style="fill:#FFEDB9;" d="M60.289,113.07c-0.148-0.043-0.301-0.09-0.453-0.136C59.988,112.98,60.141,113.027,60.289,113.07
		L60.289,113.07z M60.289,113.07"/>
	<path style="fill:#FFEDB9;" d="M28.281,100.613c-0.32-0.16-0.64-0.32-0.957-0.48C27.641,100.293,27.961,100.453,28.281,100.613
		L28.281,100.613z M28.281,100.613"/>
	<path style="fill:#FFEDB9;" d="M30.246,88.621c0.301-0.473,0.602-0.949,0.906-1.418c2.125-3.262,4.325-6.469,6.641-9.59
		c0.012-0.011,0.016-0.023,0.027-0.035c1.047,0.445,2.118,0.883,3.2,1.32c-1.067-0.429-2.122-0.863-3.157-1.3
		c-0.015-0.008-0.031-0.012-0.047-0.02c-4.953,6.664-9.461,13.676-13.531,20.965l0.004-0.004
		C26.176,95.168,28.176,91.867,30.246,88.621L30.246,88.621z M30.246,88.621"/>
	<path style="fill:#FFEDB9;" d="M130.211,126.902c-0.676-0.074-1.348-0.152-2.02-0.23
		C128.863,126.75,129.535,126.828,130.211,126.902L130.211,126.902z M130.211,126.902"/>
	<path style="fill:#FFEDB9;" d="M117.961,125.367c-0.641-0.09-1.273-0.179-1.91-0.269
		C116.688,125.188,117.32,125.277,117.961,125.367L117.961,125.367z M117.961,125.367"/>
	<path style="fill:#FFEDB9;" d="M135.688,127.492c-0.676-0.07-1.352-0.14-2.024-0.215
		C134.336,127.352,135.012,127.422,135.688,127.492L135.688,127.492z M135.688,127.492"/>
	<path style="fill:#FFEDB9;" d="M123.98,126.16c-0.496-0.062-0.992-0.121-1.484-0.187
		C122.988,126.039,123.484,126.098,123.98,126.16L123.98,126.16z M123.98,126.16"/>
	<path style="fill:#FFEDB9;" d="M84.215,91.906c-0.246-0.054-0.492-0.109-0.738-0.168C83.723,91.797,83.969,91.852,84.215,91.906
		L84.215,91.906z M84.215,91.906"/>
	<path style="fill:#FFEDB9;" d="M51.414,82.762c-0.785-0.27-1.57-0.543-2.344-0.821C49.844,82.219,50.629,82.492,51.414,82.762
		L51.414,82.762z M51.414,82.762"/>
	<path style="fill:#FFEDB9;" d="M56.02,84.305c-1.157-0.371-2.297-0.75-3.426-1.133C53.723,83.555,54.863,83.934,56.02,84.305
		L56.02,84.305z M56.02,84.305"/>
	<path style="fill:#FFEDB9;" d="M47.746,81.465c-0.723-0.266-1.445-0.531-2.16-0.797C46.301,80.934,47.02,81.199,47.746,81.465
		L47.746,81.465z M47.746,81.465"/>
	<path style="fill:#FFEDB9;" d="M70.375,88.523c-0.383-0.101-0.773-0.203-1.152-0.308C69.602,88.32,69.992,88.422,70.375,88.523
		L70.375,88.523z M70.375,88.523"/>
	<path style="fill:#FFEDB9;" d="M44.32,80.188c-0.761-0.29-1.511-0.583-2.258-0.879C42.809,79.605,43.559,79.898,44.32,80.188
		L44.32,80.188z M44.32,80.188"/>
	<path style="fill:#FFEDB9;" d="M80.379,91.027c-0.277-0.062-0.551-0.129-0.828-0.195C79.828,90.898,80.102,90.965,80.379,91.027
		L80.379,91.027z M80.379,91.027"/>
	<path style="fill:#FFEDB9;" d="M59.633,85.441c-0.715-0.218-1.418-0.441-2.121-0.664C58.215,85,58.918,85.223,59.633,85.441
		L59.633,85.441z M59.633,85.441"/>
	<path style="fill:#FFEDB9;" d="M63.301,86.543c-0.61-0.18-1.215-0.359-1.817-0.539C62.086,86.184,62.691,86.363,63.301,86.543
		L63.301,86.543z M63.301,86.543"/>
	<path style="fill:#FFEDB9;" d="M66.98,87.594c-0.55-0.153-1.101-0.305-1.644-0.461C65.883,87.289,66.43,87.441,66.98,87.594
		L66.98,87.594z M66.98,87.594"/>
	<path style="fill:#FFEDB9;" d="M87.621,92.648c-0.016-0.003-0.027-0.003-0.039-0.007C87.594,92.645,87.605,92.645,87.621,92.648
		L87.621,92.648z M87.621,92.648"/>
	<path style="fill:#D55A00;" d="M146.02,5.578c-5.04,1.246-10,2.692-14.875,4.328c-0.817,0.274-1.629,0.555-2.442,0.84
		c-14.555,5.102-28.316,11.906-41.039,20.168C118.008,37.383,153.711,41.141,192,41.141c27.773,0,54.172-1.985,78.168-5.539
		c4.102-0.61,8.137-1.262,12.094-1.961c4.828-0.852,9.558-1.762,14.148-2.743c-3.715-2.41-7.519-4.699-11.406-6.859l-0.266-0.144
		c-0.769-0.43-1.547-0.848-2.324-1.262c-0.324-0.176-0.648-0.348-0.976-0.52c-0.461-0.246-0.926-0.484-1.391-0.726
		c-0.637-0.328-1.274-0.657-1.914-0.981c-0.09-0.043-0.18-0.086-0.27-0.133c-18.781-9.418-39.312-15.859-60.984-18.671
		c-0.004,0-0.004,0-0.004,0c-0.027-0.004-0.051-0.004-0.074-0.008c-1.071-0.141-2.145-0.27-3.223-0.391
		c-0.211-0.023-0.422-0.043-0.629-0.066c-0.898-0.098-1.793-0.188-2.695-0.274c-0.309-0.031-0.613-0.058-0.922-0.086
		c-0.805-0.07-1.613-0.136-2.422-0.199c-0.137-0.012-0.273-0.023-0.41-0.035c-0.23-0.016-0.461-0.031-0.691-0.047
		c-0.758-0.055-1.52-0.101-2.282-0.148c-0.394-0.024-0.793-0.047-1.191-0.071c-0.75-0.039-1.5-0.07-2.25-0.101
		c-0.402-0.016-0.801-0.035-1.199-0.051c-0.793-0.027-1.586-0.047-2.379-0.066h-0.082c-0.328-0.012-0.656-0.02-0.985-0.028
		C194.297,0.012,193.148,0,192,0c-0.969,0-1.934,0.012-2.898,0.027c-0.161,0-0.317,0-0.477,0.004
		c-0.332,0.004-0.664,0.016-0.992,0.024c-0.805,0.015-1.61,0.039-2.41,0.066c-0.36,0.012-0.715,0.027-1.071,0.043
		c-0.832,0.031-1.656,0.07-2.484,0.113c-0.285,0.016-0.57,0.032-0.856,0.047c-0.917,0.055-1.839,0.114-2.757,0.18
		c-0.153,0.012-0.309,0.023-0.461,0.031C166.793,1.344,156.246,3.051,146.02,5.578L146.02,5.578z M146.02,5.578"/>
	<path style="fill:#FF9300;" d="M225.398,177.324l6.899,10.172c3.437,5.066-0.969,11.684-6.996,10.602
		c-22.547-4.039-46.414-19.496-82.926-21.969v0.004c-6.996-0.621-13.84-1.375-20.516-2.242c-3.89,14.421-6.175,29.5-6.586,45.05
		l0.051,0.004c0,0.008,0,0.016,0,0.02c23.785,3.172,49.633,4.914,76.676,4.914c84.336,0,157.125-16.914,191.641-41.43
		c0.16,3.176,0.359,6.336,0.359,9.551c0-1.477-0.023-2.949-0.055-4.418c-0.011-0.461-0.027-0.922-0.039-1.383
		c-0.031-1.039-0.07-2.074-0.121-3.109c-0.023-0.496-0.043-0.996-0.07-1.492c-0.07-1.328-0.153-2.657-0.25-3.977
		c-0.047-0.617-0.102-1.23-0.156-1.844c-0.067-0.797-0.133-1.597-0.211-2.39c-0.075-0.782-0.157-1.563-0.243-2.344
		c-0.058-0.535-0.121-1.07-0.183-1.602c-1.352-11.492-3.715-22.675-7-33.461C349.879,157.398,293.566,173.348,225.398,177.324
		L225.398,177.324z M225.398,177.324"/>
	<path style="fill:#FF9300;" d="M0.484,179.023c0.071-1.039,0.153-2.074,0.239-3.109c0.347-4.199,0.789-8.371,1.406-12.492
		c0.004-0.039,0.008-0.082,0.016-0.121c0.656-4.367,1.488-8.676,2.437-12.942c0.145-0.668,0.305-1.328,0.457-1.992
		c0.977-4.179,2.051-8.324,3.289-12.394c20.981,17.425,62.164,31.218,113.492,37.902c4.383-16.246,10.848-31.641,19.086-45.875
		c-0.172-0.02-0.34-0.035-0.511-0.051c-1.579-0.144-3.145-0.297-4.707-0.457c-0.676-0.07-1.352-0.14-2.024-0.215
		c-1.156-0.121-2.305-0.246-3.453-0.375c-0.672-0.074-1.348-0.152-2.02-0.23c-1.41-0.164-2.812-0.336-4.211-0.512
		c-0.496-0.062-0.992-0.125-1.484-0.187c-1.523-0.196-3.031-0.399-4.535-0.606c-0.641-0.09-1.273-0.179-1.91-0.269
		c-1.117-0.16-2.231-0.325-3.34-0.493c-0.637-0.093-1.27-0.187-1.902-0.285c-1.375-0.215-2.747-0.433-4.106-0.656
		c-0.433-0.07-0.867-0.141-1.297-0.215c-1.468-0.246-2.926-0.496-4.371-0.754c-0.597-0.105-1.187-0.215-1.777-0.32
		c-1.082-0.199-2.16-0.398-3.231-0.602c-0.582-0.113-1.168-0.222-1.746-0.335c-1.355-0.266-2.703-0.536-4.039-0.809
		c-0.332-0.07-0.668-0.137-1.004-0.207c-1.429-0.301-2.843-0.606-4.25-0.914c-0.535-0.117-1.066-0.238-1.597-0.36
		c-1.051-0.238-2.09-0.476-3.125-0.718c-0.532-0.125-1.059-0.25-1.586-0.375c-1.321-0.317-2.637-0.641-3.938-0.969
		c-0.238-0.059-0.48-0.121-0.722-0.18c-1.375-0.351-2.735-0.711-4.082-1.07c-0.485-0.133-0.961-0.266-1.442-0.395
		c-1.004-0.273-1.996-0.55-2.984-0.836c-0.469-0.132-0.942-0.265-1.407-0.402c-1.285-0.371-2.558-0.75-3.812-1.133
		c-0.152-0.047-0.305-0.09-0.453-0.136c-1.313-0.403-2.602-0.813-3.883-1.227c-0.43-0.141-0.852-0.281-1.277-0.418
		c-0.946-0.312-1.883-0.629-2.809-0.945c-0.418-0.145-0.832-0.285-1.246-0.43c-1.219-0.426-2.426-0.855-3.613-1.293
		c-0.086-0.031-0.172-0.059-0.254-0.09c-1.223-0.453-2.426-0.91-3.613-1.371c-0.379-0.148-0.75-0.297-1.125-0.449
		c-0.875-0.344-1.735-0.691-2.586-1.043c-0.368-0.152-0.735-0.301-1.098-0.453c-1.129-0.477-2.242-0.953-3.336-1.438
		c-0.047-0.019-0.098-0.043-0.145-0.062c-1.109-0.492-2.191-0.992-3.261-1.496c-0.332-0.157-0.656-0.313-0.989-0.473
		c-0.785-0.375-1.558-0.754-2.324-1.137c-0.32-0.156-0.64-0.316-0.953-0.476c-1.016-0.516-2.012-1.035-2.984-1.559
		c-0.02-0.012-0.039-0.019-0.059-0.031c4.07-7.289,8.578-14.301,13.535-20.965c0.016,0.008,0.028,0.016,0.043,0.02
		c0.766-1.024,1.528-2.047,2.309-3.055c0.297-0.383,0.598-0.762,0.898-1.145c2.024-2.57,4.106-5.086,6.254-7.55
		c0.278-0.317,0.551-0.637,0.828-0.953c7.289-8.243,15.278-15.852,23.868-22.743c0.496-0.394,1-0.785,1.5-1.175
		c2.367-1.86,4.777-3.665,7.23-5.411c0.574-0.41,1.145-0.824,1.723-1.226c2.703-1.883,5.453-3.703,8.257-5.445
		c0.25-0.157,0.497-0.325,0.747-0.481c3.179-1.957,6.414-3.828,9.711-5.602c0.136-0.074,0.281-0.14,0.417-0.214
		c2.977-1.594,6.004-3.094,9.071-4.532c0.832-0.39,1.672-0.757,2.512-1.132c2.445-1.106,4.921-2.161,7.421-3.164
		c0.977-0.391,1.95-0.782,2.934-1.157c1.707-0.652,3.43-1.269,5.16-1.871c0.813-0.281,1.625-0.562,2.442-0.836
		c0.082-0.027,0.16-0.058,0.238-0.082c0.812-0.269,1.609-0.562,2.426-0.82c3.468-1.106,6.976-2.125,10.527-3.035
		c0.289-0.074,0.582-0.129,0.867-0.199c0.274-0.067,0.547-0.125,0.82-0.192c10.223-2.527,20.77-4.234,31.571-5.043
		c-0.188,0.016-0.371,0.027-0.555,0.039c-1.398,0.11-2.793,0.235-4.18,0.371c-0.347,0.035-0.687,0.071-1.031,0.11
		c-1.387,0.144-2.766,0.297-4.144,0.472c-0.196,0.024-0.391,0.051-0.586,0.078c-1.231,0.161-2.457,0.333-3.68,0.516
		c-0.356,0.051-0.715,0.106-1.07,0.16c-1.305,0.199-2.602,0.418-3.899,0.645c-0.387,0.066-0.773,0.14-1.16,0.211
		c-1.098,0.199-2.195,0.41-3.289,0.629c-0.305,0.062-0.613,0.121-0.918,0.183c-1.242,0.254-2.477,0.528-3.711,0.809
		c-0.473,0.105-0.941,0.215-1.414,0.324c-1.187,0.277-2.375,0.566-3.559,0.867c-0.457,0.117-0.914,0.242-1.371,0.36
		c-0.855,0.226-1.707,0.457-2.562,0.695c-0.52,0.144-1.039,0.289-1.559,0.437c-1.086,0.313-2.168,0.633-3.25,0.965
		c-0.594,0.184-1.191,0.371-1.785,0.559c-0.703,0.226-1.402,0.453-2.101,0.683c-0.946,0.313-1.887,0.633-2.825,0.957
		c-0.601,0.211-1.203,0.422-1.8,0.637c-0.688,0.246-1.379,0.496-2.063,0.75c-0.523,0.196-1.043,0.395-1.562,0.594
		c-1.157,0.441-2.309,0.894-3.454,1.355c-0.375,0.153-0.746,0.305-1.117,0.457c-1.547,0.637-3.078,1.293-4.605,1.965
		c-0.055,0.028-0.11,0.051-0.168,0.075c-0.856,0.382-1.707,0.769-2.555,1.16c-0.07,0.031-0.141,0.066-0.211,0.097
		c-1.68,0.778-3.351,1.582-5.004,2.407l-0.058,0.031C49.699,48.418,9.004,103.875,1.328,169.434
		c-0.062,0.535-0.125,1.074-0.183,1.609c-0.086,0.781-0.168,1.559-0.243,2.34c-0.078,0.797-0.144,1.597-0.214,2.398
		c-0.051,0.614-0.106,1.223-0.153,1.832c-0.097,1.325-0.18,2.653-0.25,3.981c-0.027,0.5-0.047,1-0.07,1.496
		c-0.051,1.035-0.09,2.07-0.117,3.109c-0.016,0.461-0.032,0.922-0.039,1.383C0.023,189.051,0,190.523,0,192
		C0,187.633,0.195,183.316,0.484,179.023L0.484,179.023z M0.484,179.023"/>
	<path style="fill:#FF7400;" d="M192,223.879c-27.039,0-52.891-1.742-76.676-4.914c-0.043,1.68-0.125,3.347-0.125,5.035
		c0,10.77,0.977,21.305,2.684,31.59c-49.231-6.836-88.742-20.235-109.266-37.082c20.508,16.855,59.961,30.289,109.184,37.125
		c22.926,3.183,47.965,4.937,74.199,4.937c90.691,0,167.148-20.941,191.055-49.562C383.672,204.754,384,198.414,384,192
		c0-3.211-0.199-6.375-0.359-9.551C349.125,206.961,276.336,223.879,192,223.879L192,223.879z M192,223.879"/>
	<path style="fill:#FF7400;" d="M0.945,211.008c-0.007-0.051-0.007-0.102-0.011-0.153c-0.301-3.074-0.536-6.164-0.692-9.281
		C0.086,198.402,0,195.211,0,192C0,198.414,0.328,204.754,0.945,211.008L0.945,211.008z M0.945,211.008"/>
	<path style="fill:#FF7400;" d="M2.438,212.703c-0.516-0.562-1.016-1.125-1.493-1.691C1.422,211.578,1.922,212.141,2.438,212.703
		L2.438,212.703z M2.438,212.703"/>
	<path style="fill:#FF7400;" d="M6.32,216.535c-0.625-0.562-1.23-1.129-1.816-1.699C5.09,215.406,5.695,215.973,6.32,216.535
		L6.32,216.535z M6.32,216.535"/>
	<path style="fill:#FF7400;" d="M4.258,214.59c-0.485-0.481-0.949-0.961-1.403-1.442C3.305,213.629,3.773,214.109,4.258,214.59
		L4.258,214.59z M4.258,214.59"/>
	<path style="fill:#FF7400;" d="M8.402,218.328c-0.617-0.512-1.214-1.027-1.797-1.543C7.188,217.301,7.785,217.816,8.402,218.328
		L8.402,218.328z M8.402,218.328"/>
	<path style="fill:#FFEDB9;" d="M348.832,302.691c12.25-17.324,21.695-36.757,27.691-57.664
		c-18.468,15.813-53.523,28.711-97.75,36.118l-25.058,3.488C234.289,286.82,213.543,288,192,288c-23.598,0-46.23-1.418-67.23-4.02
		c3.136,9.547,7.07,18.723,11.601,27.54c-3.43-1.668-6.812-3.329-10.152-4.922c3.297,1.574,6.64,3.214,10.027,4.863
		c17.68,8.605,36.492,17.391,55.754,17.684C255.746,330.109,312.441,318.781,348.832,302.691L348.832,302.691z M348.832,302.691"/>
	<path style="fill:#FFEDB9;" d="M115.027,301.527c-0.289-0.121-0.574-0.238-0.859-0.355
		C114.453,301.289,114.738,301.406,115.027,301.527L115.027,301.527z M115.027,301.527"/>
	<path style="fill:#FFEDB9;" d="M113.504,300.898c-0.277-0.113-0.551-0.222-0.828-0.332
		C112.953,300.676,113.227,300.785,113.504,300.898L113.504,300.898z M113.504,300.898"/>
	<path style="fill:#FFEDB9;" d="M110.496,299.711c-0.262-0.098-0.523-0.195-0.785-0.293
		C109.973,299.516,110.234,299.613,110.496,299.711L110.496,299.711z M110.496,299.711"/>
	<path style="fill:#FFEDB9;" d="M116.559,302.18c-0.301-0.129-0.598-0.254-0.899-0.383
		C115.961,301.922,116.258,302.051,116.559,302.18L116.559,302.18z M116.559,302.18"/>
	<path style="fill:#FFEDB9;" d="M111.996,300.293c-0.269-0.105-0.535-0.211-0.805-0.313
		C111.461,300.086,111.727,300.188,111.996,300.293L111.996,300.293z M111.996,300.293"/>
	<path style="fill:#FFEDB9;" d="M118.102,302.852c-0.313-0.137-0.629-0.274-0.942-0.411
		C117.473,302.578,117.789,302.715,118.102,302.852L118.102,302.852z M118.102,302.852"/>
	<path style="fill:#FFEDB9;" d="M121.223,304.258c-0.348-0.16-0.692-0.317-1.035-0.473
		C120.531,303.941,120.875,304.098,121.223,304.258L121.223,304.258z M121.223,304.258"/>
	<path style="fill:#FFEDB9;" d="M119.652,303.543c-0.328-0.148-0.656-0.293-0.984-0.438
		C118.996,303.25,119.324,303.395,119.652,303.543L119.652,303.543z M119.652,303.543"/>
	<path style="fill:#FFEDB9;" d="M100.27,296.445c-0.243-0.062-0.481-0.117-0.723-0.175
		C99.789,296.328,100.027,296.383,100.27,296.445L100.27,296.445z M100.27,296.445"/>
	<path style="fill:#FFEDB9;" d="M98.848,296.105c-0.246-0.054-0.489-0.101-0.735-0.152
		C98.359,296.004,98.602,296.051,98.848,296.105L98.848,296.105z M98.848,296.105"/>
	<path style="fill:#FFEDB9;" d="M101.699,296.816c-0.238-0.066-0.476-0.125-0.711-0.187
		C101.227,296.691,101.461,296.75,101.699,296.816L101.699,296.816z M101.699,296.816"/>
	<path style="fill:#FFEDB9;" d="M122.82,304.996c-0.379-0.176-0.754-0.351-1.129-0.523
		C122.066,304.645,122.441,304.82,122.82,304.996L122.82,304.996z M122.82,304.996"/>
	<path style="fill:#FFEDB9;" d="M103.145,297.223c-0.239-0.071-0.481-0.137-0.719-0.203
		C102.664,297.086,102.906,297.152,103.145,297.223L103.145,297.223z M103.145,297.223"/>
	<path style="fill:#FFEDB9;" d="M107.527,298.629c-0.25-0.086-0.5-0.172-0.75-0.254
		C107.027,298.457,107.277,298.543,107.527,298.629L107.527,298.629z M107.527,298.629"/>
	<path style="fill:#FFEDB9;" d="M109.008,299.156c-0.254-0.094-0.512-0.183-0.766-0.273
		C108.496,298.973,108.754,299.062,109.008,299.156L109.008,299.156z M109.008,299.156"/>
	<path style="fill:#FFEDB9;" d="M104.598,297.66c-0.246-0.074-0.489-0.148-0.735-0.222
		C104.109,297.512,104.352,297.586,104.598,297.66L104.598,297.66z M104.598,297.66"/>
	<path style="fill:#FFEDB9;" d="M106.059,298.129c-0.25-0.082-0.497-0.16-0.743-0.238
		C105.562,297.969,105.809,298.047,106.059,298.129L106.059,298.129z M106.059,298.129"/>
	<path style="fill:#FFEDB9;" d="M84.617,296.805c0.883-1.243,2.313-1.993,4.524-1.95c0.453,0.012,0.906,0.028,1.363,0.051
		c-0.457-0.023-0.91-0.039-1.363-0.051C86.934,294.812,85.5,295.562,84.617,296.805L84.617,296.805z M84.617,296.805"/>
	<path style="fill:#FFEDB9;" d="M84.777,309.188c0.215,0.753,0.45,1.492,0.688,2.21C85.227,310.68,84.992,309.941,84.777,309.188
		L84.777,309.188z M84.777,309.188"/>
	<path style="fill:#FFEDB9;" d="M11.539,248.27c0.07,0.05,0.133,0.097,0.199,0.148C11.672,248.367,11.609,248.32,11.539,248.27
		L11.539,248.27z M11.539,248.27"/>
	<path style="fill:#FFEDB9;" d="M13.875,249.941c0.098,0.067,0.195,0.133,0.293,0.2C14.07,250.074,13.973,250.008,13.875,249.941
		L13.875,249.941z M13.875,249.941"/>
	<path style="fill:#FFEDB9;" d="M88.281,318.543c0.117,0.258,0.207,0.441,0.25,0.535C88.488,318.984,88.398,318.801,88.281,318.543
		L88.281,318.543z M88.281,318.543"/>
	<path style="fill:#FFEDB9;" d="M9.32,246.555c0.153,0.125,0.309,0.246,0.461,0.367C9.629,246.801,9.473,246.68,9.32,246.555
		L9.32,246.555z M9.32,246.555"/>
	<path style="fill:#FFEDB9;" d="M7.48,245.043c6,20.91,15.45,40.348,27.708,57.676c9.57,4.226,20.542,8.058,32.675,11.414
		c-12.133-3.356-23.105-7.188-32.675-11.418C22.93,285.391,13.48,265.953,7.48,245.043L7.48,245.043z M7.48,245.043"/>
	<path style="fill:#FFEDB9;" d="M16.32,251.578c0.039,0.027,0.075,0.051,0.11,0.074C16.395,251.629,16.355,251.605,16.32,251.578
		L16.32,251.578z M16.32,251.578"/>
	<path style="fill:#FFEDB9;" d="M97.434,295.809c-0.246-0.051-0.496-0.094-0.743-0.141
		C96.938,295.715,97.188,295.758,97.434,295.809L97.434,295.809z M97.434,295.809"/>
	<path style="fill:#FFEDB9;" d="M84.238,307.137c0.164,0.687,0.344,1.375,0.539,2.051C84.582,308.512,84.402,307.824,84.238,307.137
		L84.238,307.137z M84.238,307.137"/>
	<path style="fill:#FFEDB9;" d="M124.422,305.746c-0.41-0.195-0.82-0.387-1.231-0.578
		C123.602,305.359,124.012,305.551,124.422,305.746L124.422,305.746z M124.422,305.746"/>
	<path style="fill:#FFEDB9;" d="M96.027,295.547c-0.25-0.047-0.504-0.082-0.754-0.121C95.523,295.465,95.773,295.5,96.027,295.547
		L96.027,295.547z M96.027,295.547"/>
	<path style="fill:#FFEDB9;" d="M126.047,306.516c-0.445-0.211-0.891-0.422-1.336-0.633
		C125.156,306.094,125.602,306.305,126.047,306.516L126.047,306.516z M126.047,306.516"/>
	<path style="fill:#FFEDB9;" d="M94.633,295.324c-0.258-0.039-0.516-0.07-0.778-0.101C94.113,295.254,94.375,295.285,94.633,295.324
		L94.633,295.324z M94.633,295.324"/>
	<path style="fill:#FFEDB9;" d="M93.246,295.141c-0.285-0.032-0.566-0.059-0.848-0.086C92.68,295.082,92.961,295.109,93.246,295.141
		L93.246,295.141z M93.246,295.141"/>
	<path style="fill:#FFEDB9;" d="M84.281,297.355c-0.215,0.415-0.39,0.864-0.519,1.356C83.891,298.219,84.066,297.77,84.281,297.355
		L84.281,297.355z M84.281,297.355"/>
	<path style="fill:#FFEDB9;" d="M91.871,295.004c-0.328-0.031-0.66-0.051-0.988-0.07C91.211,294.953,91.539,294.973,91.871,295.004
		L91.871,295.004z M91.871,295.004"/>
	<path style="fill:#FF7400;" d="M201.168,383.777c0.617-0.031,1.23-0.066,1.844-0.097c0.898-0.051,1.797-0.11,2.695-0.172
		c0.656-0.047,1.316-0.094,1.969-0.149c0.844-0.066,1.683-0.144,2.523-0.222c0.688-0.067,1.375-0.129,2.059-0.199
		c0.785-0.083,1.566-0.176,2.351-0.27c3.09-0.363,6.157-0.797,9.2-1.305c0.398-0.07,0.8-0.133,1.203-0.199
		c1.039-0.184,2.07-0.375,3.105-0.57c0.344-0.067,0.688-0.133,1.031-0.199c1.102-0.215,2.2-0.442,3.293-0.676
		c0.207-0.043,0.414-0.09,0.621-0.137c28.735-6.273,55.055-18.992,77.403-36.547C277.363,351.523,236.414,356.57,192,356.57
		c-8.137,0-16.156-0.172-24.035-0.5c9.805,10.328,20.699,19.614,32.574,27.563C197.691,383.762,194.875,384,192,384
		c1.539,0,3.07-0.023,4.598-0.059c0.515-0.011,1.027-0.035,1.543-0.05C199.152,383.859,200.16,383.824,201.168,383.777
		L201.168,383.777z M201.168,383.777"/>
	<path style="fill:#FF7400;" d="M176.957,383.359c-0.84-0.066-1.687-0.117-2.523-0.195c-4.793-0.434-9.536-1.047-14.219-1.832
		c-0.777-0.129-1.547-0.273-2.317-0.414c-9.976-1.793-19.695-4.332-29.07-7.606c-0.297-0.105-0.601-0.199-0.898-0.304
		c-4.739-1.68-9.391-3.547-13.95-5.582c-0.289-0.129-0.578-0.262-0.867-0.391c-8.801-3.98-17.25-8.597-25.285-13.801
		c18.996,12.309,40.293,21.368,63.117,26.352c0.203,0.043,0.403,0.086,0.61,0.133c1.097,0.234,2.199,0.461,3.3,0.676
		c0.34,0.066,0.68,0.132,1.02,0.195c1.035,0.199,2.074,0.39,3.117,0.574c0.395,0.066,0.793,0.129,1.188,0.195
		c3.05,0.512,6.125,0.946,9.222,1.309c0.778,0.094,1.555,0.187,2.336,0.27c0.688,0.07,1.375,0.132,2.067,0.199
		c0.836,0.078,1.672,0.156,2.515,0.222c0.657,0.051,1.313,0.102,1.973,0.149c0.898,0.062,1.797,0.121,2.695,0.172
		c0.614,0.031,1.227,0.066,1.844,0.097c1.004,0.047,2.016,0.082,3.027,0.114c0.512,0.015,1.028,0.039,1.543,0.05
		C188.93,383.977,190.461,384,192,384C186.934,384,181.926,383.742,176.957,383.359L176.957,383.359z M176.957,383.359"/>
	<path style="fill:#FF7400;" d="M78.957,344.375c-0.242-0.059-0.484-0.117-0.727-0.176
		C78.473,344.258,78.715,344.316,78.957,344.375L78.957,344.375z M78.957,344.375"/>
	<path style="fill:#FF7400;" d="M83.914,345.523c-0.004,0-0.008,0-0.016-0.003C83.906,345.523,83.91,345.523,83.914,345.523
		L83.914,345.523z M83.914,345.523"/>
	<path style="fill:#FF7400;" d="M73.535,343.035l0.004,0.004L73.535,343.035z M73.535,343.035"/>
	<path style="fill:#FF7400;" d="M78.613,346.879c2.887,2.121,5.84,4.16,8.848,6.121C84.449,351.039,81.5,348.996,78.613,346.879
		L78.613,346.879z M78.613,346.879"/>
	<path style="fill:#FF7400;" d="M73.539,343.039c1.359,1.066,2.734,2.109,4.121,3.141C76.273,345.148,74.898,344.105,73.539,343.039
		L73.539,343.039z M73.539,343.039"/>
	<path style="fill:#FF7400;" d="M115.273,218.938c0.411-15.547,2.696-30.626,6.586-45.047l0.004-0.012
		c-0.015,0-0.027-0.004-0.043-0.004c-51.328-6.684-92.511-20.477-113.492-37.902c-1.238,4.07-2.312,8.215-3.289,12.394
		c-0.152,0.664-0.312,1.324-0.457,1.992c-0.949,4.266-1.781,8.575-2.437,12.942c-0.008,0.039-0.012,0.082-0.016,0.121
		c-0.617,4.121-1.059,8.297-1.406,12.492c-0.086,1.035-0.168,2.07-0.239,3.109C0.195,183.316,0,187.633,0,192
		c0-3.215,0.199-6.375,0.359-9.551C23.797,199.094,64.91,212.219,115.273,218.938L115.273,218.938z M115.273,218.938"/>
	<path style="fill:#D55A00;" d="M0.934,210.855c0.004,0.051,0.004,0.102,0.011,0.153c0,0,0,0,0,0.004
		c0.477,0.566,0.977,1.129,1.493,1.691c0.136,0.149,0.277,0.297,0.417,0.445c0.454,0.485,0.918,0.965,1.403,1.442
		c0.082,0.082,0.164,0.164,0.246,0.25c0.586,0.566,1.191,1.133,1.816,1.695c0.094,0.086,0.192,0.168,0.285,0.25
		c0.583,0.52,1.18,1.031,1.797,1.543c0.071,0.059,0.141,0.121,0.215,0.18c20.524,16.847,60.035,30.246,109.266,37.082
		c-1.707-10.285-2.684-20.82-2.684-31.59c0-1.688,0.082-3.355,0.125-5.035c0-0.004,0-0.012,0-0.02l-0.051-0.004
		c-50.363-6.722-91.476-19.847-114.914-36.492C0.199,185.625,0,188.785,0,192c0,3.211,0.086,6.402,0.242,9.574
		C0.398,204.691,0.633,207.781,0.934,210.855L0.934,210.855z M0.934,210.855"/>
	<path style="fill:#FFD042;" d="M140.922,128c5.332-9.211,11.422-17.922,18.16-26.082c0-0.004,0.004-0.008,0.004-0.008
		c-0.008,0-0.016,0-0.024,0c-25.839-1.488-49.996-4.691-71.441-9.262c-0.016,0-0.027-0.003-0.039-0.007
		c-1.129-0.239-2.25-0.485-3.367-0.735c-0.246-0.054-0.492-0.109-0.738-0.164c-1.039-0.234-2.075-0.472-3.098-0.711
		c-0.277-0.066-0.551-0.133-0.828-0.199c-3.125-0.738-6.184-1.508-9.176-2.309c-0.383-0.101-0.773-0.203-1.152-0.308
		c-0.754-0.203-1.5-0.41-2.246-0.617c-0.547-0.157-1.098-0.309-1.641-0.465c-0.684-0.195-1.363-0.391-2.039-0.59
		c-0.606-0.176-1.211-0.355-1.817-0.539c-0.617-0.184-1.238-0.371-1.851-0.563c-0.711-0.218-1.414-0.441-2.117-0.664
		c-0.5-0.156-1-0.312-1.492-0.472c-1.157-0.375-2.297-0.75-3.426-1.133c-0.399-0.137-0.785-0.274-1.18-0.41
		c-0.789-0.27-1.574-0.543-2.348-0.821c-0.441-0.156-0.878-0.316-1.32-0.476c-0.726-0.266-1.445-0.531-2.16-0.797
		c-0.426-0.16-0.848-0.32-1.27-0.48c-0.757-0.29-1.507-0.583-2.254-0.879c-0.347-0.137-0.699-0.274-1.042-0.411
		c-1.082-0.433-2.153-0.875-3.2-1.316c-0.011,0.012-0.019,0.023-0.027,0.031c-2.316,3.121-4.516,6.328-6.641,9.59
		c-0.304,0.469-0.605,0.945-0.906,1.418c-2.07,3.246-4.07,6.547-5.957,9.918l-0.004,0.008c0.02,0.008,0.039,0.019,0.055,0.027
		c0.972,0.528,1.972,1.047,2.984,1.559c0.317,0.16,0.637,0.32,0.957,0.48c0.762,0.383,1.539,0.762,2.324,1.137
		c0.329,0.156,0.657,0.316,0.989,0.473c1.07,0.504,2.152,1,3.261,1.492c0.047,0.023,0.098,0.043,0.145,0.066
		c1.094,0.485,2.207,0.961,3.336,1.434c0.363,0.152,0.73,0.305,1.094,0.453c0.851,0.352,1.715,0.703,2.59,1.047
		c0.375,0.148,0.746,0.297,1.125,0.445c1.187,0.465,2.386,0.922,3.613,1.371c0.082,0.031,0.168,0.063,0.25,0.094
		c1.191,0.437,2.398,0.867,3.617,1.293c0.41,0.144,0.828,0.285,1.242,0.426c0.93,0.32,1.867,0.633,2.813,0.945
		c0.425,0.141,0.847,0.281,1.277,0.418c1.277,0.418,2.57,0.828,3.883,1.231c0.148,0.042,0.301,0.089,0.453,0.136
		c1.254,0.383,2.527,0.762,3.812,1.133c0.465,0.137,0.938,0.27,1.407,0.402c0.984,0.282,1.98,0.559,2.984,0.832
		c0.477,0.133,0.957,0.266,1.442,0.395c1.347,0.363,2.707,0.723,4.082,1.07c0.238,0.063,0.48,0.121,0.722,0.184
		c1.301,0.328,2.613,0.648,3.938,0.969c0.527,0.125,1.054,0.25,1.582,0.371c1.035,0.246,2.078,0.484,3.125,0.722
		c0.535,0.118,1.066,0.239,1.601,0.356c1.407,0.312,2.821,0.617,4.25,0.914c0.332,0.07,0.672,0.14,1.004,0.207
		c1.336,0.277,2.684,0.547,4.039,0.809c0.578,0.117,1.164,0.226,1.746,0.335c1.071,0.204,2.149,0.407,3.231,0.602
		c0.59,0.109,1.18,0.219,1.773,0.324c1.449,0.258,2.907,0.508,4.375,0.754c0.43,0.07,0.864,0.141,1.297,0.215
		c1.359,0.223,2.731,0.441,4.106,0.652c0.632,0.098,1.265,0.192,1.902,0.289c1.109,0.168,2.223,0.329,3.34,0.489
		c0.637,0.093,1.269,0.183,1.91,0.273c1.5,0.207,3.012,0.41,4.535,0.606c0.492,0.062,0.988,0.125,1.484,0.187
		c1.395,0.176,2.797,0.344,4.211,0.512c0.672,0.078,1.348,0.152,2.02,0.23c1.148,0.129,2.297,0.254,3.453,0.375
		c0.672,0.071,1.348,0.145,2.024,0.211c1.558,0.16,3.128,0.313,4.703,0.461C140.57,127.965,140.746,127.984,140.922,128L140.922,128
		z M140.922,128"/>
	<path style="fill:#D55A00;" d="M200.539,383.637c-11.879-7.953-22.769-17.239-32.574-27.567c-0.02-0.019-0.039-0.039-0.059-0.058
		c-0.031,0-0.066-0.004-0.097-0.004c-30.653-1.289-59.168-4.957-83.891-10.485c-0.008,0-0.012,0-0.016-0.003
		c-1.668-0.372-3.312-0.754-4.945-1.145c-0.242-0.055-0.484-0.113-0.727-0.172c-1.578-0.383-3.144-0.769-4.691-1.164
		c0,0,0,0-0.004,0c0.004,0,0.004,0,0.008,0.004c1.355,1.066,2.734,2.105,4.121,3.137c0.313,0.234,0.633,0.468,0.949,0.699
		c2.891,2.121,5.84,4.164,8.848,6.121c0.125,0.078,0.246,0.156,0.367,0.238c8.039,5.2,16.488,9.821,25.289,13.797
		c0.289,0.133,0.574,0.266,0.863,0.395c4.563,2.031,9.211,3.898,13.954,5.578c0.296,0.105,0.597,0.199,0.898,0.304
		c9.375,3.274,19.09,5.813,29.066,7.61c0.774,0.137,1.543,0.281,2.317,0.414c4.683,0.781,9.426,1.394,14.219,1.832
		c0.839,0.074,1.683,0.125,2.527,0.191C181.926,383.742,186.934,384,192,384C194.875,384,197.691,383.762,200.539,383.637
		L200.539,383.637z M200.539,383.637"/>
	<path style="fill:#FFD042;" d="M134.398,332.801c0.403-9.199-5.066-14.668-12.796-19.199c-9.77-5.727-26.801-9.602-25.602,0
		C97.199,323.199,134,342,134.398,332.801L134.398,332.801z M134.398,332.801"/>
	<path style="fill:#FF9300;" d="M211.199,172.801c0,3.535-4.297,6.398-9.597,6.398c-5.305,0-9.602-2.863-9.602-6.398
		c0-3.535,4.297-6.403,9.602-6.403C206.902,166.398,211.199,169.266,211.199,172.801L211.199,172.801z M211.199,172.801"/>
</g>
</svg>
